<svg xmlns="http://www.w3.org/2000/svg" xmlns:xlink="http://www.w3.org/1999/xlink" contentStyleType="text/css" data-diagram-type="ACTIVITY" height="760px" preserveAspectRatio="none" style="width:666px;height:760px;background:#FFFFFF;" version="1.1" viewBox="0 0 666 760" width="666px" zoomAndPan="magnify"><title>Activity Diagram - Authenticate (Card &amp; PIN)</title><defs/><g><g class="title" data-source-line="2"><text fill="#000000" font-family="Verdana" font-size="22" font-weight="bold" lengthAdjust="spacing" textLength="559.292" x="51.8989" y="37.1182">Activity Diagram - Authenticate (Card &amp; PIN)</text></g><ellipse cx="400.0801" cy="62.7373" fill="#FFFFFF" rx="10" ry="10" style="stroke:#000000;stroke-width:1;"/><rect fill="#FFFFFF" height="34.584" rx="12.5" ry="12.5" style="stroke:#000000;stroke-width:1;" width="212.2344" x="293.9629" y="92.7373"/><text fill="#000000" font-family="Verdana" font-size="12" lengthAdjust="spacing" textLength="192.2344" x="303.9629" y="114.8018">Customer inserts Card into ATM</text><rect fill="#FFFFFF" height="34.584" rx="12.5" ry="12.5" style="stroke:#000000;stroke-width:1;" width="146.375" x="326.8926" y="147.3213"/><text fill="#000000" font-family="Verdana" font-size="12" lengthAdjust="spacing" textLength="126.375" x="336.8926" y="169.3857">ATM reads Card data</text><polygon fill="#FFFFFF" points="323.1311,201.9053,477.0291,201.9053,489.0291,213.9053,477.0291,225.9053,323.1311,225.9053,311.1311,213.9053,323.1311,201.9053" style="stroke:#000000;stroke-width:1;"/><text fill="#000000" font-family="Verdana" font-size="11" lengthAdjust="spacing" textLength="153.8979" x="323.1311" y="218.28">Card valid and not blocked?</text><text fill="#000000" font-family="Verdana" font-size="11" lengthAdjust="spacing" textLength="18.7935" x="292.3376" y="211.5957">yes</text><text fill="#000000" font-family="Verdana" font-size="11" lengthAdjust="spacing" textLength="13.6372" x="489.0291" y="211.5957">no</text><rect fill="#FFFFFF" height="34.584" rx="12.5" ry="12.5" style="stroke:#000000;stroke-width:1;" width="145.8711" x="159.5234" y="235.9053"/><text fill="#000000" font-family="Verdana" font-size="12" lengthAdjust="spacing" textLength="125.8711" x="169.5234" y="257.9697">Customer enters PIN</text><rect fill="#FFFFFF" height="34.584" rx="12.5" ry="12.5" style="stroke:#000000;stroke-width:1;" width="188.7617" x="138.0781" y="290.4893"/><text fill="#000000" font-family="Verdana" font-size="12" lengthAdjust="spacing" textLength="168.7617" x="148.0781" y="312.5537">Bank Backend validates PIN</text><polygon fill="#FFFFFF" points="174.6633,401.6323,290.2546,401.6323,302.2546,413.6323,290.2546,425.6323,174.6633,425.6323,162.6633,413.6323,174.6633,401.6323" style="stroke:#000000;stroke-width:1;"/><text fill="#000000" font-family="Verdana" font-size="11" lengthAdjust="spacing" textLength="115.5913" x="174.6633" y="418.0071">Attempts remaining?</text><text fill="#000000" font-family="Verdana" font-size="11" lengthAdjust="spacing" textLength="18.7935" x="143.8699" y="411.3228">yes</text><text fill="#000000" font-family="Verdana" font-size="11" lengthAdjust="spacing" textLength="13.6372" x="302.2546" y="411.3228">no</text><rect fill="#FFFFFF" height="34.584" rx="12.5" ry="12.5" style="stroke:#000000;stroke-width:1;" width="163.5898" x="45.5859" y="435.6323"/><text fill="#000000" font-family="Verdana" font-size="12" lengthAdjust="spacing" textLength="143.5898" x="55.5859" y="457.6968">Customer re-enters PIN</text><rect fill="#FFFFFF" height="34.584" rx="12.5" ry="12.5" style="stroke:#000000;stroke-width:1;" width="188.7617" x="33" y="490.2163"/><text fill="#000000" font-family="Verdana" font-size="12" lengthAdjust="spacing" textLength="168.7617" x="43" y="512.2808">Bank Backend validates PIN</text><rect fill="#FFFFFF" height="34.584" rx="12.5" ry="12.5" style="stroke:#000000;stroke-width:1;" width="119.9902" x="277.542" y="435.6323"/><text fill="#000000" font-family="Verdana" font-size="12" lengthAdjust="spacing" textLength="99.9902" x="287.542" y="457.6968">ATM blocks Card</text><rect fill="#FFFFFF" height="34.584" rx="12.5" ry="12.5" style="stroke:#000000;stroke-width:1;" width="123.6758" x="275.6992" y="490.2163"/><text fill="#000000" font-family="Verdana" font-size="12" lengthAdjust="spacing" textLength="103.6758" x="285.6992" y="512.2808">ATM retains Card</text><rect fill="#FFFFFF" height="34.584" rx="12.5" ry="12.5" style="stroke:#000000;stroke-width:1;" width="191.5508" x="241.7617" y="544.8003"/><text fill="#000000" font-family="Verdana" font-size="12" lengthAdjust="spacing" textLength="171.5508" x="251.7617" y="566.8647">Display "Card blocked" error</text><ellipse cx="337.5371" cy="610.3843" fill="none" rx="11" ry="11" style="stroke:#000000;stroke-width:1;"/><ellipse cx="337.5371" cy="610.3843" fill="#FFFFFF" rx="6" ry="6" style="stroke:#000000;stroke-width:1;"/><polygon fill="#FFFFFF" points="199.7866,345.0732,265.1313,345.0732,277.1313,357.0732,265.1313,369.0732,199.7866,369.0732,187.7866,357.0732,199.7866,345.0732" style="stroke:#000000;stroke-width:1;"/><text fill="#000000" font-family="Verdana" font-size="11" lengthAdjust="spacing" textLength="18.7935" x="236.459" y="380.1323">yes</text><text fill="#000000" font-family="Verdana" font-size="11" lengthAdjust="spacing" textLength="65.3447" x="199.7866" y="361.448">PIN invalid?</text><text fill="#000000" font-family="Verdana" font-size="11" lengthAdjust="spacing" textLength="13.6372" x="174.1494" y="354.7637">no</text><rect fill="#FFFFFF" height="49.168" rx="12.5" ry="12.5" style="stroke:#000000;stroke-width:1;" width="144.0313" x="160.4434" y="663.3843"/><text fill="#000000" font-family="Verdana" font-size="12" lengthAdjust="spacing" textLength="124.0313" x="170.4434" y="685.4487">ATM creates Session</text><text fill="#000000" font-family="Verdana" font-size="12" lengthAdjust="spacing" textLength="110.7363" x="170.4434" y="700.0327">(status = ACTIVE)</text><ellipse cx="232.459" cy="743.5522" fill="none" rx="11" ry="11" style="stroke:#000000;stroke-width:1;"/><ellipse cx="232.459" cy="743.5522" fill="#FFFFFF" rx="6" ry="6" style="stroke:#000000;stroke-width:1;"/><rect fill="#FFFFFF" height="34.584" rx="12.5" ry="12.5" style="stroke:#000000;stroke-width:1;" width="123.6758" x="505.8633" y="235.9053"/><text fill="#000000" font-family="Verdana" font-size="12" lengthAdjust="spacing" textLength="103.6758" x="515.8633" y="257.9697">ATM retains Card</text><rect fill="#FFFFFF" height="34.584" rx="12.5" ry="12.5" style="stroke:#000000;stroke-width:1;" width="184.7773" x="475.3125" y="290.4893"/><text fill="#000000" font-family="Verdana" font-size="12" lengthAdjust="spacing" textLength="164.7773" x="485.3125" y="312.5537">Display "Card invalid" error</text><ellipse cx="567.7012" cy="356.0732" fill="none" rx="11" ry="11" style="stroke:#000000;stroke-width:1;"/><ellipse cx="567.7012" cy="356.0732" fill="#FFFFFF" rx="6" ry="6" style="stroke:#000000;stroke-width:1;"/><line style="stroke:#000000;stroke-width:1;" x1="400.0801" x2="400.0801" y1="72.7373" y2="92.7373"/><polygon fill="#000000" points="396.0801,82.7373,400.0801,92.7373,404.0801,82.7373,400.0801,86.7373" style="stroke:#000000;stroke-width:1;"/><line style="stroke:#000000;stroke-width:1;" x1="400.0801" x2="400.0801" y1="127.3213" y2="147.3213"/><polygon fill="#000000" points="396.0801,137.3213,400.0801,147.3213,404.0801,137.3213,400.0801,141.3213" style="stroke:#000000;stroke-width:1;"/><line style="stroke:#000000;stroke-width:1;" x1="232.459" x2="232.459" y1="270.4893" y2="290.4893"/><polygon fill="#000000" points="228.459,280.4893,232.459,290.4893,236.459,280.4893,232.459,284.4893" style="stroke:#000000;stroke-width:1;"/><line style="stroke:#000000;stroke-width:1;" x1="127.3809" x2="127.3809" y1="470.2163" y2="490.2163"/><polygon fill="#000000" points="123.3809,480.2163,127.3809,490.2163,131.3809,480.2163,127.3809,484.2163" style="stroke:#000000;stroke-width:1;"/><line style="stroke:#000000;stroke-width:1;" x1="337.5371" x2="337.5371" y1="470.2163" y2="490.2163"/><polygon fill="#000000" points="333.5371,480.2163,337.5371,490.2163,341.5371,480.2163,337.5371,484.2163" style="stroke:#000000;stroke-width:1;"/><line style="stroke:#000000;stroke-width:1;" x1="337.5371" x2="337.5371" y1="524.8003" y2="544.8003"/><polygon fill="#000000" points="333.5371,534.8003,337.5371,544.8003,341.5371,534.8003,337.5371,538.8003" style="stroke:#000000;stroke-width:1;"/><line style="stroke:#000000;stroke-width:1;" x1="337.5371" x2="337.5371" y1="579.3843" y2="599.3843"/><polygon fill="#000000" points="333.5371,589.3843,337.5371,599.3843,341.5371,589.3843,337.5371,593.3843" style="stroke:#000000;stroke-width:1;"/><line style="stroke:#000000;stroke-width:1;" x1="162.6633" x2="127.3809" y1="413.6323" y2="413.6323"/><line style="stroke:#000000;stroke-width:1;" x1="127.3809" x2="127.3809" y1="413.6323" y2="435.6323"/><polygon fill="#000000" points="123.3809,425.6323,127.3809,435.6323,131.3809,425.6323,127.3809,429.6323" style="stroke:#000000;stroke-width:1;"/><line style="stroke:#000000;stroke-width:1;" x1="302.2546" x2="337.5371" y1="413.6323" y2="413.6323"/><line style="stroke:#000000;stroke-width:1;" x1="337.5371" x2="337.5371" y1="413.6323" y2="435.6323"/><polygon fill="#000000" points="333.5371,425.6323,337.5371,435.6323,341.5371,425.6323,337.5371,429.6323" style="stroke:#000000;stroke-width:1;"/><line style="stroke:#000000;stroke-width:1;" x1="127.3809" x2="127.3809" y1="524.8003" y2="626.3843"/><line style="stroke:#000000;stroke-width:1;" x1="127.3809" x2="455.3125" y1="626.3843" y2="626.3843"/><polygon fill="#000000" points="451.3125,507.324,455.3125,497.324,459.3125,507.324,455.3125,503.324" style="stroke:#000000;stroke-width:1;"/><line style="stroke:#000000;stroke-width:1;" x1="455.3125" x2="455.3125" y1="357.0732" y2="626.3843"/><line style="stroke:#000000;stroke-width:1;" x1="455.3125" x2="277.1313" y1="357.0732" y2="357.0732"/><polygon fill="#000000" points="287.1313,353.0732,277.1313,357.0732,287.1313,361.0732,283.1313,357.0732" style="stroke:#000000;stroke-width:1;"/><line style="stroke:#000000;stroke-width:1;" x1="232.459" x2="232.459" y1="369.0732" y2="401.6323"/><polygon fill="#000000" points="228.459,391.6323,232.459,401.6323,236.459,391.6323,232.459,395.6323" style="stroke:#000000;stroke-width:1;"/><line style="stroke:#000000;stroke-width:1;" x1="187.7866" x2="19" y1="357.0732" y2="357.0732"/><polygon fill="#000000" points="15,499.324,19,509.324,23,499.324,19,503.324" style="stroke:#000000;stroke-width:1;"/><line style="stroke:#000000;stroke-width:1;" x1="19" x2="19" y1="357.0732" y2="643.3843"/><line style="stroke:#000000;stroke-width:1;" x1="19" x2="232.459" y1="643.3843" y2="643.3843"/><line style="stroke:#000000;stroke-width:1;" x1="232.459" x2="232.459" y1="643.3843" y2="663.3843"/><polygon fill="#000000" points="228.459,653.3843,232.459,663.3843,236.459,653.3843,232.459,657.3843" style="stroke:#000000;stroke-width:1;"/><line style="stroke:#000000;stroke-width:1;" x1="232.459" x2="232.459" y1="325.0732" y2="345.0732"/><polygon fill="#000000" points="228.459,335.0732,232.459,345.0732,236.459,335.0732,232.459,339.0732" style="stroke:#000000;stroke-width:1;"/><line style="stroke:#000000;stroke-width:1;" x1="232.459" x2="232.459" y1="712.5522" y2="732.5522"/><polygon fill="#000000" points="228.459,722.5522,232.459,732.5522,236.459,722.5522,232.459,726.5522" style="stroke:#000000;stroke-width:1;"/><line style="stroke:#000000;stroke-width:1;" x1="567.7012" x2="567.7012" y1="270.4893" y2="290.4893"/><polygon fill="#000000" points="563.7012,280.4893,567.7012,290.4893,571.7012,280.4893,567.7012,284.4893" style="stroke:#000000;stroke-width:1;"/><line style="stroke:#000000;stroke-width:1;" x1="567.7012" x2="567.7012" y1="325.0732" y2="345.0732"/><polygon fill="#000000" points="563.7012,335.0732,567.7012,345.0732,571.7012,335.0732,567.7012,339.0732" style="stroke:#000000;stroke-width:1;"/><line style="stroke:#000000;stroke-width:1;" x1="311.1311" x2="232.459" y1="213.9053" y2="213.9053"/><line style="stroke:#000000;stroke-width:1;" x1="232.459" x2="232.459" y1="213.9053" y2="235.9053"/><polygon fill="#000000" points="228.459,225.9053,232.459,235.9053,236.459,225.9053,232.459,229.9053" style="stroke:#000000;stroke-width:1;"/><line style="stroke:#000000;stroke-width:1;" x1="489.0291" x2="567.7012" y1="213.9053" y2="213.9053"/><line style="stroke:#000000;stroke-width:1;" x1="567.7012" x2="567.7012" y1="213.9053" y2="235.9053"/><polygon fill="#000000" points="563.7012,225.9053,567.7012,235.9053,571.7012,225.9053,567.7012,229.9053" style="stroke:#000000;stroke-width:1;"/><line style="stroke:#000000;stroke-width:1;" x1="400.0801" x2="400.0801" y1="181.9053" y2="201.9053"/><polygon fill="#000000" points="396.0801,191.9053,400.0801,201.9053,404.0801,191.9053,400.0801,195.9053" style="stroke:#000000;stroke-width:1;"/><!--SRC=[VP71Ri8m38RlUGgFmzGUU06gQIgm0uTDauPssiLh35Yq2KeC4sy_9sJ0qBGS6ZM_y_lBxplPq42mwv6T4PQUeEs43on7c3Ek0mumXdQlPKwuGo6ePXWitCFhugKs9We6CMOosqVn0mLW5ob8X5p5JZoqo-V6JFGBWT0MnQ9WOmolYjy1UxQ0peBp0f-zxxPa7sj8ZQ4wKgmDmAMBqb28YQ59vrDqMvYYtd75IacBhFhNXlLXbVugKPRLcUFP5o1nj28qx1GzqA1ni5lVza_hmX1e_1iZo_-Xf0Bgew8uV_PBmUJtdf9fhiy3YPBS27EEEgyZZ79m9QeHK0W-_1GfukxKpbbUcRoN559hK_mxdKYYUwCOsRiFL-ayPH_X0ThPSl7-L2V3R6QkmV-4km4hIL-1PPyJq3S0]--></g></svg>