<svg xmlns="http://www.w3.org/2000/svg" xmlns:xlink="http://www.w3.org/1999/xlink" contentStyleType="text/css" data-diagram-type="ACTIVITY" height="422px" preserveAspectRatio="none" style="width:442px;height:422px;background:#FFFFFF;" version="1.1" viewBox="0 0 442 422" width="442px" zoomAndPan="magnify"><title>Activity Diagram - Check Balance</title><defs/><g><g class="title" data-source-line="2"><text fill="#000000" font-family="Verdana" font-size="22" font-weight="bold" lengthAdjust="spacing" textLength="409.9326" x="15" y="37.1182">Activity Diagram - Check Balance</text></g><ellipse cx="221.4663" cy="62.7373" fill="#FFFFFF" rx="10" ry="10" style="stroke:#000000;stroke-width:1;"/><rect fill="#FFFFFF" height="49.168" rx="12.5" ry="12.5" style="stroke:#000000;stroke-width:1;" width="312.5117" x="65.2104" y="92.7373"/><text fill="#000000" font-family="Verdana" font-size="12" lengthAdjust="spacing" textLength="207.5742" x="75.2104" y="114.8018">Bank Backend creates Transaction</text><text fill="#000000" font-family="Verdana" font-size="12" lengthAdjust="spacing" textLength="292.5117" x="75.2104" y="129.3857">(type = BALANCE_INQUIRY, status = PENDING)</text><rect fill="#FFFFFF" height="34.584" rx="12.5" ry="12.5" style="stroke:#000000;stroke-width:1;" width="265.1563" x="88.8882" y="161.9053"/><text fill="#000000" font-family="Verdana" font-size="12" lengthAdjust="spacing" textLength="245.1563" x="98.8882" y="183.9697">Bank Backend retrieves Account balance</text><rect fill="#FFFFFF" height="34.584" rx="12.5" ry="12.5" style="stroke:#000000;stroke-width:1;" width="211.5078" x="115.7124" y="216.4893"/><text fill="#000000" font-family="Verdana" font-size="12" lengthAdjust="spacing" textLength="191.5078" x="125.7124" y="238.5537">ATM displays balance on screen</text><rect fill="#FFFFFF" height="49.168" rx="12.5" ry="12.5" style="stroke:#000000;stroke-width:1;" width="231.5996" x="105.6665" y="271.0732"/><text fill="#000000" font-family="Verdana" font-size="12" lengthAdjust="spacing" textLength="211.5996" x="115.6665" y="293.1377">Bank Backend updates Transaction</text><text fill="#000000" font-family="Verdana" font-size="12" lengthAdjust="spacing" textLength="139.5879" x="115.6665" y="307.7217">(status = COMPLETED)</text><rect fill="#FFFFFF" height="34.584" rx="12.5" ry="12.5" style="stroke:#000000;stroke-width:1;" width="238.8008" x="102.0659" y="340.2412"/><text fill="#000000" font-family="Verdana" font-size="12" lengthAdjust="spacing" textLength="218.8008" x="112.0659" y="362.3057">Bank Backend writes AuditLog entry</text><ellipse cx="221.4663" cy="405.8252" fill="none" rx="11" ry="11" style="stroke:#000000;stroke-width:1;"/><ellipse cx="221.4663" cy="405.8252" fill="#FFFFFF" rx="6" ry="6" style="stroke:#000000;stroke-width:1;"/><line style="stroke:#000000;stroke-width:1;" x1="221.4663" x2="221.4663" y1="72.7373" y2="92.7373"/><polygon fill="#000000" points="217.4663,82.7373,221.4663,92.7373,225.4663,82.7373,221.4663,86.7373" style="stroke:#000000;stroke-width:1;"/><line style="stroke:#000000;stroke-width:1;" x1="221.4663" x2="221.4663" y1="141.9053" y2="161.9053"/><polygon fill="#000000" points="217.4663,151.9053,221.4663,161.9053,225.4663,151.9053,221.4663,155.9053" style="stroke:#000000;stroke-width:1;"/><line style="stroke:#000000;stroke-width:1;" x1="221.4663" x2="221.4663" y1="196.4893" y2="216.4893"/><polygon fill="#000000" points="217.4663,206.4893,221.4663,216.4893,225.4663,206.4893,221.4663,210.4893" style="stroke:#000000;stroke-width:1;"/><line style="stroke:#000000;stroke-width:1;" x1="221.4663" x2="221.4663" y1="251.0732" y2="271.0732"/><polygon fill="#000000" points="217.4663,261.0732,221.4663,271.0732,225.4663,261.0732,221.4663,265.0732" style="stroke:#000000;stroke-width:1;"/><line style="stroke:#000000;stroke-width:1;" x1="221.4663" x2="221.4663" y1="320.2412" y2="340.2412"/><polygon fill="#000000" points="217.4663,330.2412,221.4663,340.2412,225.4663,330.2412,221.4663,334.2412" style="stroke:#000000;stroke-width:1;"/><line style="stroke:#000000;stroke-width:1;" x1="221.4663" x2="221.4663" y1="374.8252" y2="394.8252"/><polygon fill="#000000" points="217.4663,384.8252,221.4663,394.8252,225.4663,384.8252,221.4663,388.8252" style="stroke:#000000;stroke-width:1;"/><!--SRC=[RO_BQiD034NtynNghe7s1ngo63y81iT9Yhie58ew5ec8ep4pSeh_lcD2kaYxlT8zEdhG8vq9XXvPZBBs1DOfNrWdA1WF0S_m3FcHt0aox54S6HCLWnhpag7CgJkHTE02eLA4Dg14J0ml7_Aeqq2mWipMjidBpwhPlrMlxq-G43h6DDcLJL4rwyNo3XT80zCb0QrpVXI5h-lvj6ZR3NGSa_GKRp5uWPWSIEv9uz3z8_Oha6ytkxfio-AFmdVWkMV7ZhNs1o3HC2tdz_rWVW00]--></g></svg>