<svg xmlns="http://www.w3.org/2000/svg" xmlns:xlink="http://www.w3.org/1999/xlink" contentStyleType="text/css" data-diagram-type="CLASS" height="1253px" preserveAspectRatio="none" style="width:1034px;height:1253px;background:#FFFFFF;" version="1.1" viewBox="0 0 1034 1253" width="1034px" zoomAndPan="magnify"><title>Domain Model - ATM System</title><defs/><g><g class="title" data-source-line="5"><text fill="#000000" font-family="Verdana" font-size="22" font-weight="bold" lengthAdjust="spacing" textLength="352.4727" x="336.4784" y="37.1182">Domain Model - ATM System</text></g><!--class Bank--><g class="entity" data-entity="Bank" data-source-line="7" data-uid="ent0002" id="entity_Bank"><rect fill="#FFFFFF" height="95.0439" rx="2.5" ry="2.5" style="stroke:#000000;stroke-width:1;" width="140.2969" x="470.71" y="59.7373"/><ellipse cx="517.4175" cy="73.7373" fill="#FFFFFF" rx="9" ry="9" style="stroke:#000000;stroke-width:1;"/><path d="M519.8907,79.8804 Q519.3096,80.1792 518.6704,80.3286 Q518.0313,80.478 517.3257,80.478 Q514.8189,80.478 513.4991,78.8262 Q512.1792,77.1743 512.1792,74.0532 Q512.1792,70.9238 513.4991,69.272 Q514.8189,67.6201 517.3257,67.6201 Q518.0313,67.6201 518.6788,67.7695 Q519.3262,67.9189 519.8907,68.2178 L519.8907,70.9404 Q519.2598,70.3594 518.6663,70.0896 Q518.0728,69.8198 517.4419,69.8198 Q516.0972,69.8198 515.4124,70.8865 Q514.7276,71.9531 514.7276,74.0532 Q514.7276,76.145 515.4124,77.2117 Q516.0972,78.2783 517.4419,78.2783 Q518.0728,78.2783 518.6663,78.0085 Q519.2598,77.7388 519.8907,77.1577 Z " fill="#000000"/><text fill="#000000" font-family="Verdana" font-size="14" font-weight="bold" lengthAdjust="spacing" textLength="39.3818" x="534.9175" y="79.3052">Bank</text><line style="stroke:#000000;stroke-width:1;" x1="471.71" x2="610.0069" y1="87.7373" y2="87.7373"/><text fill="#000000" font-family="Verdana" font-size="14" lengthAdjust="spacing" textLength="128.2969" x="476.71" y="105.8125">bankCode : String</text><text fill="#000000" font-family="Verdana" font-size="14" lengthAdjust="spacing" textLength="97.9111" x="476.71" y="122.8271">name : String</text><text fill="#000000" font-family="Verdana" font-size="14" lengthAdjust="spacing" textLength="127.0527" x="476.71" y="139.8418">swiftCode : String</text><line style="stroke:#000000;stroke-width:1;" x1="471.71" x2="610.0069" y1="146.7813" y2="146.7813"/></g><!--class ATM--><g class="entity" data-entity="ATM" data-source-line="13" data-uid="ent0003" id="entity_ATM"><rect fill="#FFFFFF" height="95.0439" rx="2.5" ry="2.5" style="stroke:#000000;stroke-width:1;" width="397.6357" x="193.04" y="231.7773"/><ellipse cx="371.2675" cy="245.7773" fill="#FFFFFF" rx="9" ry="9" style="stroke:#000000;stroke-width:1;"/><path d="M373.7407,251.9204 Q373.1596,252.2192 372.5205,252.3686 Q371.8813,252.518 371.1757,252.518 Q368.6689,252.518 367.3491,250.8662 Q366.0293,249.2143 366.0293,246.0932 Q366.0293,242.9638 367.3491,241.312 Q368.6689,239.6601 371.1757,239.6601 Q371.8813,239.6601 372.5288,239.8095 Q373.1762,239.9589 373.7407,240.2578 L373.7407,242.9804 Q373.1098,242.3994 372.5163,242.1296 Q371.9228,241.8598 371.292,241.8598 Q369.9472,241.8598 369.2624,242.9265 Q368.5776,243.9931 368.5776,246.0932 Q368.5776,248.185 369.2624,249.2517 Q369.9472,250.3183 371.292,250.3183 Q371.9228,250.3183 372.5163,250.0485 Q373.1098,249.7788 373.7407,249.1977 Z " fill="#000000"/><text fill="#000000" font-family="Verdana" font-size="14" font-weight="bold" lengthAdjust="spacing" textLength="33.6807" x="388.7675" y="251.3452">ATM</text><line style="stroke:#000000;stroke-width:1;" x1="194.04" x2="589.6757" y1="259.7773" y2="259.7773"/><text fill="#000000" font-family="Verdana" font-size="14" lengthAdjust="spacing" textLength="100.8438" x="199.04" y="277.8525">atmId : String</text><text fill="#000000" font-family="Verdana" font-size="14" lengthAdjust="spacing" textLength="113.4424" x="199.04" y="294.8671">location : String</text><text fill="#000000" font-family="Verdana" font-size="14" lengthAdjust="spacing" textLength="385.6357" x="199.04" y="311.8818">status : Enum {ONLINE, OFFLINE, OUT_OF_SERVICE}</text><line style="stroke:#000000;stroke-width:1;" x1="194.04" x2="589.6757" y1="318.8213" y2="318.8213"/></g><!--class Customer--><g class="entity" data-entity="Customer" data-source-line="19" data-uid="ent0004" id="entity_Customer"><rect fill="#FFFFFF" height="112.0586" rx="2.5" ry="2.5" style="stroke:#000000;stroke-width:1;" width="150.6943" x="684.51" y="356.8273"/><ellipse cx="718.7615" cy="370.8273" fill="#FFFFFF" rx="9" ry="9" style="stroke:#000000;stroke-width:1;"/><path d="M721.2347,376.9704 Q720.6536,377.2692 720.0144,377.4186 Q719.3753,377.568 718.6697,377.568 Q716.1629,377.568 714.8431,375.9162 Q713.5232,374.2643 713.5232,371.1432 Q713.5232,368.0138 714.8431,366.362 Q716.1629,364.7101 718.6697,364.7101 Q719.3753,364.7101 720.0227,364.8595 Q720.6702,365.0089 721.2347,365.3078 L721.2347,368.0304 Q720.6038,367.4494 720.0103,367.1796 Q719.4168,366.9098 718.7859,366.9098 Q717.4412,366.9098 716.7564,367.9765 Q716.0716,369.0431 716.0716,371.1432 Q716.0716,373.235 716.7564,374.3017 Q717.4412,375.3683 718.7859,375.3683 Q719.4168,375.3683 720.0103,375.0985 Q720.6038,374.8288 721.2347,374.2477 Z " fill="#000000"/><text fill="#000000" font-family="Verdana" font-size="14" font-weight="bold" lengthAdjust="spacing" textLength="75.4688" x="735.4841" y="376.3952">Customer</text><line style="stroke:#000000;stroke-width:1;" x1="685.51" x2="834.2043" y1="384.8273" y2="384.8273"/><text fill="#000000" font-family="Verdana" font-size="14" lengthAdjust="spacing" textLength="138.6943" x="690.51" y="402.9025">customerId : String</text><text fill="#000000" font-family="Verdana" font-size="14" lengthAdjust="spacing" textLength="127.0732" x="690.51" y="419.9171">firstName : String</text><text fill="#000000" font-family="Verdana" font-size="14" lengthAdjust="spacing" textLength="124.585" x="690.51" y="436.9318">lastName : String</text><text fill="#000000" font-family="Verdana" font-size="14" lengthAdjust="spacing" textLength="129.9717" x="690.51" y="453.9464">dateOfBirth : Date</text><line style="stroke:#000000;stroke-width:1;" x1="685.51" x2="834.2043" y1="460.8859" y2="460.8859"/></g><!--class Account--><g class="entity" data-entity="Account" data-source-line="26" data-uid="ent0005" id="entity_Account"><rect fill="#FFFFFF" height="129.0732" rx="2.5" ry="2.5" style="stroke:#000000;stroke-width:1;" width="331.1494" x="696.28" y="911.0273"/><ellipse cx="826.4646" cy="925.0273" fill="#FFFFFF" rx="9" ry="9" style="stroke:#000000;stroke-width:1;"/><path d="M828.9377,931.1704 Q828.3567,931.4692 827.7175,931.6186 Q827.0783,931.768 826.3728,931.768 Q823.8659,931.768 822.5461,930.1162 Q821.2263,928.4643 821.2263,925.3432 Q821.2263,922.2138 822.5461,920.562 Q823.8659,918.9101 826.3728,918.9101 Q827.0783,918.9101 827.7258,919.0595 Q828.3733,919.2089 828.9377,919.5078 L828.9377,922.2304 Q828.3069,921.6494 827.7133,921.3796 Q827.1198,921.1098 826.489,921.1098 Q825.1443,921.1098 824.4594,922.1765 Q823.7746,923.2431 823.7746,925.3432 Q823.7746,927.435 824.4594,928.5017 Q825.1443,929.5683 826.489,929.5683 Q827.1198,929.5683 827.7133,929.2985 Q828.3069,929.0288 828.9377,928.4477 Z " fill="#000000"/><text fill="#000000" font-family="Verdana" font-size="14" font-weight="bold" lengthAdjust="spacing" textLength="63.2803" x="843.9646" y="930.5952">Account</text><line style="stroke:#000000;stroke-width:1;" x1="697.28" x2="1026.4294" y1="939.0273" y2="939.0273"/><text fill="#000000" font-family="Verdana" font-size="14" lengthAdjust="spacing" textLength="169.4014" x="702.28" y="957.1025">accountNumber : String</text><text fill="#000000" font-family="Verdana" font-size="14" lengthAdjust="spacing" textLength="319.1494" x="702.28" y="974.1171">accountType : Enum {CHECKING, SAVINGS}</text><text fill="#000000" font-family="Verdana" font-size="14" lengthAdjust="spacing" textLength="126.2051" x="702.28" y="991.1318">balance : Decimal</text><text fill="#000000" font-family="Verdana" font-size="14" lengthAdjust="spacing" textLength="119.5674" x="702.28" y="1008.1464">currency : String</text><text fill="#000000" font-family="Verdana" font-size="14" lengthAdjust="spacing" textLength="140.041" x="702.28" y="1025.1611">dailyLimit : Decimal</text><line style="stroke:#000000;stroke-width:1;" x1="697.28" x2="1026.4294" y1="1032.1005" y2="1032.1005"/></g><!--class Card--><g class="entity" data-entity="Card" data-source-line="34" data-uid="ent0006" id="entity_Card"><rect fill="#FFFFFF" height="129.0732" rx="2.5" ry="2.5" style="stroke:#000000;stroke-width:1;" width="262.8994" x="195.4" y="1117.1073"/><ellipse cx="304.9845" cy="1131.1073" fill="#FFFFFF" rx="9" ry="9" style="stroke:#000000;stroke-width:1;"/><path d="M307.4576,1137.2504 Q306.8766,1137.5492 306.2374,1137.6986 Q305.5982,1137.848 304.8927,1137.848 Q302.3858,1137.848 301.066,1136.1962 Q299.7462,1134.5443 299.7462,1131.4232 Q299.7462,1128.2938 301.066,1126.642 Q302.3858,1124.9901 304.8927,1124.9901 Q305.5982,1124.9901 306.2457,1125.1395 Q306.8932,1125.2889 307.4576,1125.5878 L307.4576,1128.3104 Q306.8268,1127.7294 306.2333,1127.4596 Q305.6397,1127.1898 305.0089,1127.1898 Q303.6642,1127.1898 302.9793,1128.2565 Q302.2945,1129.3231 302.2945,1131.4232 Q302.2945,1133.515 302.9793,1134.5817 Q303.6642,1135.6483 305.0089,1135.6483 Q305.6397,1135.6483 306.2333,1135.3785 Q306.8268,1135.1088 307.4576,1134.5277 Z " fill="#000000"/><text fill="#000000" font-family="Verdana" font-size="14" font-weight="bold" lengthAdjust="spacing" textLength="36.2305" x="322.4845" y="1136.6752">Card</text><line style="stroke:#000000;stroke-width:1;" x1="196.4" x2="457.2994" y1="1145.1073" y2="1145.1073"/><text fill="#000000" font-family="Verdana" font-size="14" lengthAdjust="spacing" textLength="145.0723" x="201.4" y="1163.1825">cardNumber : String</text><text fill="#000000" font-family="Verdana" font-size="14" lengthAdjust="spacing" textLength="250.8994" x="201.4" y="1180.1971">cardType : Enum {DEBIT, CREDIT}</text><text fill="#000000" font-family="Verdana" font-size="14" lengthAdjust="spacing" textLength="152.5918" x="201.4" y="1197.2118">expirationDate : Date</text><text fill="#000000" font-family="Verdana" font-size="14" lengthAdjust="spacing" textLength="80.1104" x="201.4" y="1214.2264">pin : String</text><text fill="#000000" font-family="Verdana" font-size="14" lengthAdjust="spacing" textLength="137.9561" x="201.4" y="1231.2411">isBlocked : Boolean</text><line style="stroke:#000000;stroke-width:1;" x1="196.4" x2="457.2994" y1="1238.1805" y2="1238.1805"/></g><!--class Session--><g class="entity" data-entity="Session" data-source-line="42" data-uid="ent0007" id="entity_Session"><rect fill="#FFFFFF" height="112.0586" rx="2.5" ry="2.5" style="stroke:#000000;stroke-width:1;" width="376.9912" x="466.36" y="498.8873"/><ellipse cx="620.9933" cy="512.8873" fill="#FFFFFF" rx="9" ry="9" style="stroke:#000000;stroke-width:1;"/><path d="M623.4664,519.0304 Q622.8854,519.3292 622.2462,519.4786 Q621.6071,519.628 620.9015,519.628 Q618.3947,519.628 617.0748,517.9762 Q615.755,516.3243 615.755,513.2032 Q615.755,510.0738 617.0748,508.422 Q618.3947,506.7701 620.9015,506.7701 Q621.6071,506.7701 622.2545,506.9195 Q622.902,507.0689 623.4664,507.3678 L623.4664,510.0904 Q622.8356,509.5094 622.2421,509.2396 Q621.6486,508.9698 621.0177,508.9698 Q619.673,508.9698 618.9882,510.0365 Q618.3034,511.1031 618.3034,513.2032 Q618.3034,515.295 618.9882,516.3617 Q619.673,517.4283 621.0177,517.4283 Q621.6486,517.4283 622.2421,517.1585 Q622.8356,516.8888 623.4664,516.3077 Z " fill="#000000"/><text fill="#000000" font-family="Verdana" font-size="14" font-weight="bold" lengthAdjust="spacing" textLength="60.2246" x="638.4933" y="518.4552">Session</text><line style="stroke:#000000;stroke-width:1;" x1="467.36" x2="842.3512" y1="526.8873" y2="526.8873"/><text fill="#000000" font-family="Verdana" font-size="14" lengthAdjust="spacing" textLength="124.7217" x="472.36" y="544.9625">sessionId : String</text><text fill="#000000" font-family="Verdana" font-size="14" lengthAdjust="spacing" textLength="150.8145" x="472.36" y="561.9771">startTime : DateTime</text><text fill="#000000" font-family="Verdana" font-size="14" lengthAdjust="spacing" textLength="144.0264" x="472.36" y="578.9918">endTime : DateTime</text><text fill="#000000" font-family="Verdana" font-size="14" lengthAdjust="spacing" textLength="364.9912" x="472.36" y="596.0064">status : Enum {ACTIVE, COMPLETED, TIMED_OUT}</text><line style="stroke:#000000;stroke-width:1;" x1="467.36" x2="842.3512" y1="602.9459" y2="602.9459"/></g><!--class Transaction--><g class="entity" data-entity="Transaction" data-source-line="49" data-uid="ent0008" id="entity_Transaction"><rect fill="#FFFFFF" height="146.0879" rx="2.5" ry="2.5" style="stroke:#000000;stroke-width:1;" width="607.957" x="350.88" y="687.9473"/><ellipse cx="604.8737" cy="701.9473" fill="#FFFFFF" rx="9" ry="9" style="stroke:#000000;stroke-width:1;"/><path d="M607.3468,708.0904 Q606.7657,708.3892 606.1266,708.5386 Q605.4874,708.688 604.7819,708.688 Q602.275,708.688 600.9552,707.0362 Q599.6354,705.3843 599.6354,702.2632 Q599.6354,699.1338 600.9552,697.482 Q602.275,695.8301 604.7819,695.8301 Q605.4874,695.8301 606.1349,695.9795 Q606.7823,696.1289 607.3468,696.4278 L607.3468,699.1504 Q606.7159,698.5694 606.1224,698.2996 Q605.5289,698.0298 604.8981,698.0298 Q603.5533,698.0298 602.8685,699.0965 Q602.1837,700.1631 602.1837,702.2632 Q602.1837,704.355 602.8685,705.4217 Q603.5533,706.4883 604.8981,706.4883 Q605.5289,706.4883 606.1224,706.2185 Q606.7159,705.9488 607.3468,705.3677 Z " fill="#000000"/><text fill="#000000" font-family="Verdana" font-size="14" font-weight="bold" lengthAdjust="spacing" textLength="92.4697" x="622.3737" y="707.5152">Transaction</text><line style="stroke:#000000;stroke-width:1;" x1="351.88" x2="957.837" y1="715.9473" y2="715.9473"/><text fill="#000000" font-family="Verdana" font-size="14" lengthAdjust="spacing" textLength="151.7715" x="356.88" y="734.0225">transactionId : String</text><text fill="#000000" font-family="Verdana" font-size="14" lengthAdjust="spacing" textLength="595.957" x="356.88" y="751.0371">transactionType : Enum {WITHDRAWAL, DEPOSIT, TRANSFER, BALANCE_INQUIRY}</text><text fill="#000000" font-family="Verdana" font-size="14" lengthAdjust="spacing" textLength="126.0889" x="356.88" y="768.0518">amount : Decimal</text><text fill="#000000" font-family="Verdana" font-size="14" lengthAdjust="spacing" textLength="119.5674" x="356.88" y="785.0664">currency : String</text><text fill="#000000" font-family="Verdana" font-size="14" lengthAdjust="spacing" textLength="158.5527" x="356.88" y="802.0811">timestamp : DateTime</text><text fill="#000000" font-family="Verdana" font-size="14" lengthAdjust="spacing" textLength="430.6367" x="356.88" y="819.0957">status : Enum {PENDING, COMPLETED, FAILED, REVERSED}</text><line style="stroke:#000000;stroke-width:1;" x1="351.88" x2="957.837" y1="826.0352" y2="826.0352"/></g><!--class Receipt--><g class="entity" data-entity="Receipt" data-source-line="58" data-uid="ent0009" id="entity_Receipt"><rect fill="#FFFFFF" height="95.0439" rx="2.5" ry="2.5" style="stroke:#000000;stroke-width:1;" width="160.7432" x="500.48" y="928.0473"/><ellipse cx="547.7344" cy="942.0473" fill="#FFFFFF" rx="9" ry="9" style="stroke:#000000;stroke-width:1;"/><path d="M550.2075,948.1904 Q549.6265,948.4892 548.9873,948.6386 Q548.3482,948.788 547.6426,948.788 Q545.1358,948.788 543.8159,947.1362 Q542.4961,945.4843 542.4961,942.3632 Q542.4961,939.2338 543.8159,937.582 Q545.1358,935.9301 547.6426,935.9301 Q548.3482,935.9301 548.9956,936.0795 Q549.6431,936.2289 550.2075,936.5278 L550.2075,939.2504 Q549.5767,938.6694 548.9832,938.3996 Q548.3897,938.1298 547.7588,938.1298 Q546.4141,938.1298 545.7293,939.1965 Q545.0445,940.2631 545.0445,942.3632 Q545.0445,944.455 545.7293,945.5217 Q546.4141,946.5883 547.7588,946.5883 Q548.3897,946.5883 548.9832,946.3185 Q549.5767,946.0488 550.2075,945.4677 Z " fill="#000000"/><text fill="#000000" font-family="Verdana" font-size="14" font-weight="bold" lengthAdjust="spacing" textLength="58.7344" x="565.2344" y="947.6152">Receipt</text><line style="stroke:#000000;stroke-width:1;" x1="501.48" x2="660.2232" y1="956.0473" y2="956.0473"/><text fill="#000000" font-family="Verdana" font-size="14" lengthAdjust="spacing" textLength="121.3311" x="506.48" y="974.1225">receiptId : String</text><text fill="#000000" font-family="Verdana" font-size="14" lengthAdjust="spacing" textLength="148.7432" x="506.48" y="991.1371">printedAt : DateTime</text><text fill="#000000" font-family="Verdana" font-size="14" lengthAdjust="spacing" textLength="111.5693" x="506.48" y="1008.1518">content : String</text><line style="stroke:#000000;stroke-width:1;" x1="501.48" x2="660.2232" y1="1015.0913" y2="1015.0913"/></g><!--class CashDispenser--><g class="entity" data-entity="CashDispenser" data-source-line="64" data-uid="ent0010" id="entity_CashDispenser"><rect fill="#FFFFFF" height="95.0439" rx="2.5" ry="2.5" style="stroke:#000000;stroke-width:1;" width="213.708" x="12" y="507.3873"/><ellipse cx="57.0566" cy="521.3873" fill="#FFFFFF" rx="9" ry="9" style="stroke:#000000;stroke-width:1;"/><path d="M59.5298,527.5304 Q58.9487,527.8292 58.3096,527.9786 Q57.6704,528.128 56.9648,528.128 Q54.458,528.128 53.1382,526.4762 Q51.8184,524.8243 51.8184,521.7032 Q51.8184,518.5738 53.1382,516.922 Q54.458,515.2701 56.9648,515.2701 Q57.6704,515.2701 58.3179,515.4195 Q58.9653,515.5689 59.5298,515.8678 L59.5298,518.5904 Q58.8989,518.0094 58.3054,517.7396 Q57.7119,517.4698 57.0811,517.4698 Q55.7363,517.4698 55.0515,518.5365 Q54.3667,519.6031 54.3667,521.7032 Q54.3667,523.795 55.0515,524.8617 Q55.7363,525.9283 57.0811,525.9283 Q57.7119,525.9283 58.3054,525.6585 Q58.8989,525.3888 59.5298,524.8077 Z " fill="#000000"/><text fill="#000000" font-family="Verdana" font-size="14" font-weight="bold" lengthAdjust="spacing" textLength="116.0947" x="74.5566" y="526.9552">CashDispenser</text><line style="stroke:#000000;stroke-width:1;" x1="13" x2="224.708" y1="535.3873" y2="535.3873"/><text fill="#000000" font-family="Verdana" font-size="14" lengthAdjust="spacing" textLength="140.6904" x="18" y="553.4625">dispenserId : String</text><text fill="#000000" font-family="Verdana" font-size="14" lengthAdjust="spacing" textLength="201.708" x="18" y="570.4771">totalCashAvailable : Decimal</text><text fill="#000000" font-family="Verdana" font-size="14" lengthAdjust="spacing" textLength="176.3125" x="18" y="587.4918">lastRefillDate : DateTime</text><line style="stroke:#000000;stroke-width:1;" x1="13" x2="224.708" y1="594.4313" y2="594.4313"/></g><!--class CashCassette--><g class="entity" data-entity="CashCassette" data-source-line="70" data-uid="ent0011" id="entity_CashCassette"><rect fill="#FFFFFF" height="95.0439" rx="2.5" ry="2.5" style="stroke:#000000;stroke-width:1;" width="180.1914" x="28.76" y="713.4673"/><ellipse cx="62.9038" cy="727.4673" fill="#FFFFFF" rx="9" ry="9" style="stroke:#000000;stroke-width:1;"/><path d="M65.377,733.6104 Q64.7959,733.9092 64.1568,734.0586 Q63.5176,734.208 62.8121,734.208 Q60.3052,734.208 58.9854,732.5562 Q57.6656,730.9043 57.6656,727.7832 Q57.6656,724.6538 58.9854,723.002 Q60.3052,721.3501 62.8121,721.3501 Q63.5176,721.3501 64.1651,721.4995 Q64.8125,721.6489 65.377,721.9478 L65.377,724.6704 Q64.7461,724.0894 64.1526,723.8196 Q63.5591,723.5498 62.9283,723.5498 Q61.5835,723.5498 60.8987,724.6165 Q60.2139,725.6831 60.2139,727.7832 Q60.2139,729.875 60.8987,730.9417 Q61.5835,732.0083 62.9283,732.0083 Q63.5591,732.0083 64.1526,731.7385 Q64.7461,731.4688 65.377,730.8877 Z " fill="#000000"/><text fill="#000000" font-family="Verdana" font-size="14" font-weight="bold" lengthAdjust="spacing" textLength="105.2051" x="79.6025" y="733.0352">CashCassette</text><line style="stroke:#000000;stroke-width:1;" x1="29.76" x2="207.9514" y1="741.4673" y2="741.4673"/><text fill="#000000" font-family="Verdana" font-size="14" lengthAdjust="spacing" textLength="131.3047" x="34.76" y="759.5425">cassetteId : String</text><text fill="#000000" font-family="Verdana" font-size="14" lengthAdjust="spacing" textLength="168.1914" x="34.76" y="776.5571">denomination : Decimal</text><text fill="#000000" font-family="Verdana" font-size="14" lengthAdjust="spacing" textLength="125.8564" x="34.76" y="793.5718">quantity : Integer</text><line style="stroke:#000000;stroke-width:1;" x1="29.76" x2="207.9514" y1="800.5113" y2="800.5113"/></g><!--class AuditLog--><g class="entity" data-entity="AuditLog" data-source-line="76" data-uid="ent0012" id="entity_AuditLog"><rect fill="#FFFFFF" height="112.0586" rx="2.5" ry="2.5" style="stroke:#000000;stroke-width:1;" width="170.5527" x="260.58" y="498.8873"/><ellipse cx="307.0483" cy="512.8873" fill="#FFFFFF" rx="9" ry="9" style="stroke:#000000;stroke-width:1;"/><path d="M309.5214,519.0304 Q308.9404,519.3292 308.3012,519.4786 Q307.662,519.628 306.9565,519.628 Q304.4496,519.628 303.1298,517.9762 Q301.81,516.3243 301.81,513.2032 Q301.81,510.0738 303.1298,508.422 Q304.4496,506.7701 306.9565,506.7701 Q307.662,506.7701 308.3095,506.9195 Q308.957,507.0689 309.5214,507.3678 L309.5214,510.0904 Q308.8905,509.5094 308.297,509.2396 Q307.7035,508.9698 307.0727,508.9698 Q305.7279,508.9698 305.0431,510.0365 Q304.3583,511.1031 304.3583,513.2032 Q304.3583,515.295 305.0431,516.3617 Q305.7279,517.4283 307.0727,517.4283 Q307.7035,517.4283 308.297,517.1585 Q308.8905,516.8888 309.5214,516.3077 Z " fill="#000000"/><text fill="#000000" font-family="Verdana" font-size="14" font-weight="bold" lengthAdjust="spacing" textLength="70.1162" x="324.5483" y="518.4552">AuditLog</text><line style="stroke:#000000;stroke-width:1;" x1="261.58" x2="430.1327" y1="526.8873" y2="526.8873"/><text fill="#000000" font-family="Verdana" font-size="14" lengthAdjust="spacing" textLength="94.3633" x="266.58" y="544.9625">logId : String</text><text fill="#000000" font-family="Verdana" font-size="14" lengthAdjust="spacing" textLength="132.002" x="266.58" y="561.9771">eventType : String</text><text fill="#000000" font-family="Verdana" font-size="14" lengthAdjust="spacing" textLength="158.5527" x="266.58" y="578.9918">timestamp : DateTime</text><text fill="#000000" font-family="Verdana" font-size="14" lengthAdjust="spacing" textLength="97.3574" x="266.58" y="596.0064">detail : String</text><line style="stroke:#000000;stroke-width:1;" x1="261.58" x2="430.1327" y1="602.9459" y2="602.9459"/></g><!--link Bank to ATM--><g class="link" data-entity-1="Bank" data-entity-2="ATM" data-source-line="84" data-uid="lnk13" id="link_Bank_ATM"><path codeLine="84" d="M499.74,155.1773 C478.9,178.9673 453.66,207.7773 432.83,231.5373" fill="none" id="Bank-ATM" style="stroke:#000000;stroke-width:1;"/><polygon fill="#000000" points="472.5248,197.4375,480.6963,192.5715,476.2754,188.6977,472.5248,197.4375" style="stroke:#000000;stroke-width:1;"/><text fill="#000000" font-family="Verdana" font-size="13" lengthAdjust="spacing" textLength="56.729" x="484.82" y="198.8471">operates</text><text fill="#000000" font-family="Verdana" font-size="13" lengthAdjust="spacing" textLength="8.2646" x="485.695" y="175.7476">1</text><text fill="#000000" font-family="Verdana" font-size="13" lengthAdjust="spacing" textLength="25.9873" x="412.2654" y="221.2063">1..*</text></g><!--link Bank to Customer--><g class="link" data-entity-1="Bank" data-entity-2="Customer" data-source-line="85" data-uid="lnk14" id="link_Bank_Customer"><path codeLine="85" d="M574.59,155.0273 C613.77,209.3373 678.32,298.8173 719.95,356.5373" fill="none" id="Bank-Customer" style="stroke:#000000;stroke-width:1;"/><polygon fill="#000000" points="612.6251,197.732,609.717,188.677,604.95,192.1157,612.6251,197.732" style="stroke:#000000;stroke-width:1;"/><text fill="#000000" font-family="Verdana" font-size="13" lengthAdjust="spacing" textLength="42.2754" x="618.7" y="198.8471">serves</text><text fill="#000000" font-family="Verdana" font-size="13" lengthAdjust="spacing" textLength="8.2646" x="570.7896" y="175.9254">1</text><text fill="#000000" font-family="Verdana" font-size="13" lengthAdjust="spacing" textLength="25.9873" x="687.9741" y="346.0851">1..*</text></g><!--link Customer to Account--><g class="link" data-entity-1="Customer" data-entity-2="Account" data-source-line="86" data-uid="lnk15" id="link_Customer_Account"><path codeLine="86" d="M831.59,469.1773 C841.94,478.5673 852.05,488.6173 860.85,498.8873 C924.87,573.5473 949.31,593.2373 975.85,687.9473 C993.38,750.4573 997.55,772.8373 975.85,834.0273 C965.93,862.0173 947.8,888.4873 928.87,910.7473" fill="none" id="Customer-Account" style="stroke:#000000;stroke-width:1;"/><polygon fill="#000000" points="972.5357,654.7299,973.4598,645.2643,967.7196,646.5289,972.5357,654.7299" style="stroke:#000000;stroke-width:1;"/><text fill="#000000" font-family="Verdana" font-size="13" lengthAdjust="spacing" textLength="33.5283" x="980.46" y="655.0171">owns</text><text fill="#000000" font-family="Verdana" font-size="13" lengthAdjust="spacing" textLength="8.2646" x="836.6725" y="488.2143">1</text><text fill="#000000" font-family="Verdana" font-size="13" lengthAdjust="spacing" textLength="25.9873" x="910.2304" y="900.5017">1..*</text></g><!--link Account to Card--><g class="link" data-entity-1="Account" data-entity-2="Card" data-source-line="87" data-uid="lnk16" id="link_Account_Card"><path codeLine="87" d="M695.88,1039.8773 C619.48,1069.0173 530.11,1103.1073 458.46,1130.4373" fill="none" id="Account-Card" style="stroke:#000000;stroke-width:1;"/><polygon fill="#000000" points="610.7283,1080.7889,620.2269,1080.3113,618.1321,1074.8194,610.7283,1080.7889" style="stroke:#000000;stroke-width:1;"/><text fill="#000000" font-family="Verdana" font-size="13" lengthAdjust="spacing" textLength="71.3921" x="624.4" y="1084.1771">is linked to</text><text fill="#000000" font-family="Verdana" font-size="13" lengthAdjust="spacing" textLength="8.2646" x="680.184" y="1040.5396">1</text><text fill="#000000" font-family="Verdana" font-size="13" lengthAdjust="spacing" textLength="25.9873" x="466.368" y="1125.3185">1..*</text></g><!--link ATM to Session--><g class="link" data-entity-1="ATM" data-entity-2="Session" data-source-line="88" data-uid="lnk17" id="link_ATM_Session"><path codeLine="88" d="M436.77,327.0273 C482.39,374.4973 553.06,448.0073 601.51,498.4173" fill="none" id="ATM-Session" style="stroke:#000000;stroke-width:1;"/><polygon fill="#000000" points="578.2549,416.8617,574.1057,408.304,569.868,412.3773,578.2549,416.8617" style="stroke:#000000;stroke-width:1;"/><text fill="#000000" font-family="Verdana" font-size="13" lengthAdjust="spacing" textLength="34.7852" x="583.79" y="418.4271">hosts</text><text fill="#000000" font-family="Verdana" font-size="13" lengthAdjust="spacing" textLength="8.2646" x="434.5419" y="347.9198">1</text><text fill="#000000" font-family="Verdana" font-size="13" lengthAdjust="spacing" textLength="25.9873" x="568.1368" y="488.3384">0..*</text></g><!--link Session to Card--><g class="link" data-entity-1="Session" data-entity-2="Card" data-source-line="89" data-uid="lnk18" id="link_Session_Card"><path codeLine="89" d="M472.32,611.4173 C410.22,634.2373 351.86,661.4773 333.85,687.9473 C245.19,818.2673 280.53,1016.2173 307.3,1116.9373" fill="none" id="Session-Card" style="stroke:#000000;stroke-width:1;"/><polygon fill="#000000" points="282.0984,877.6801,287.6991,869.9936,282.1114,868.1696,282.0984,877.6801" style="stroke:#000000;stroke-width:1;"/><text fill="#000000" font-family="Verdana" font-size="13" lengthAdjust="spacing" textLength="124.8647" x="292.65" y="878.0971">is authenticated by</text><text fill="#000000" font-family="Verdana" font-size="13" lengthAdjust="spacing" textLength="8.2646" x="450.0485" y="629.4178">1</text><text fill="#000000" font-family="Verdana" font-size="13" lengthAdjust="spacing" textLength="8.2646" x="296.446" y="1106.2557">1</text></g><!--link Session to Transaction--><g class="link" data-entity-1="Session" data-entity-2="Transaction" data-source-line="90" data-uid="lnk19" id="link_Session_Transaction"><path codeLine="90" d="M654.85,611.4073 C654.85,634.8973 654.85,662.5673 654.85,687.6273" fill="none" id="Session-Transaction" style="stroke:#000000;stroke-width:1;"/><polygon fill="#000000" points="659.85,654.847,662.7889,645.8019,656.9111,645.8019,659.85,654.847" style="stroke:#000000;stroke-width:1;"/><text fill="#000000" font-family="Verdana" font-size="13" lengthAdjust="spacing" textLength="54.3867" x="668.85" y="655.0171">contains</text><text fill="#000000" font-family="Verdana" font-size="13" lengthAdjust="spacing" textLength="8.2646" x="646.4022" y="631.9223">1</text><text fill="#000000" font-family="Verdana" font-size="13" lengthAdjust="spacing" textLength="25.9873" x="628.611" y="677.3992">1..*</text></g><!--link Transaction to Receipt--><g class="link" data-entity-1="Transaction" data-entity-2="Receipt" data-source-line="91" data-uid="lnk20" id="link_Transaction_Receipt"><path codeLine="91" d="M618.49,834.5173 C614.25,844.3073 610.24,854.3273 606.85,864.0273 C599.72,884.5073 593.91,907.7973 589.61,927.6973" fill="none" id="Transaction-Receipt" style="stroke:#000000;stroke-width:1;"/><polygon fill="#000000" points="610.3698,877.7028,615.8547,869.9333,610.2403,868.1931,610.3698,877.7028" style="stroke:#000000;stroke-width:1;"/><text fill="#000000" font-family="Verdana" font-size="13" lengthAdjust="spacing" textLength="64.8096" x="620.85" y="878.0971">generates</text><text fill="#000000" font-family="Verdana" font-size="13" lengthAdjust="spacing" textLength="8.2646" x="606.7807" y="855.0936">1</text><text fill="#000000" font-family="Verdana" font-size="13" lengthAdjust="spacing" textLength="25.9873" x="564.1127" y="917.3495">0..1</text></g><!--link ATM to CashDispenser--><g class="link" data-entity-1="ATM" data-entity-2="CashDispenser" data-source-line="92" data-uid="lnk21" id="link_ATM_CashDispenser"><path codeLine="92" d="M320.11,327.1973 C307.58,336.4773 295,346.5373 283.85,356.8273 C233.34,403.4273 183.89,465.2773 152.51,507.1773" fill="none" id="ATM-CashDispenser" style="stroke:#000000;stroke-width:1;"/><polygon fill="#000000" points="285.4426,416.9161,293.7575,412.2995,289.4559,408.2938,285.4426,416.9161" style="stroke:#000000;stroke-width:1;"/><text fill="#000000" font-family="Verdana" font-size="13" lengthAdjust="spacing" textLength="54.3867" x="297.85" y="418.4271">contains</text><text fill="#000000" font-family="Verdana" font-size="13" lengthAdjust="spacing" textLength="8.2646" x="301.9492" y="347.7649">1</text><text fill="#000000" font-family="Verdana" font-size="13" lengthAdjust="spacing" textLength="8.2646" x="149.2575" y="496.5082">1</text></g><!--link CashDispenser to CashCassette--><g class="link" data-entity-1="CashDispenser" data-entity-2="CashCassette" data-source-line="93" data-uid="lnk22" id="link_CashDispenser_CashCassette"><path codeLine="93" d="M118.85,602.7273 C118.85,635.7973 118.85,679.9373 118.85,713.0373" fill="none" id="CashDispenser-CashCassette" style="stroke:#000000;stroke-width:1;"/><polygon fill="#000000" points="123.85,654.847,126.7889,645.8019,120.9111,645.8019,123.85,654.847" style="stroke:#000000;stroke-width:1;"/><text fill="#000000" font-family="Verdana" font-size="13" lengthAdjust="spacing" textLength="34.5566" x="132.85" y="655.0171">holds</text><text fill="#000000" font-family="Verdana" font-size="13" lengthAdjust="spacing" textLength="8.2646" x="110.3055" y="623.6324">1</text><text fill="#000000" font-family="Verdana" font-size="13" lengthAdjust="spacing" textLength="25.9873" x="92.0107" y="702.6772">1..*</text></g><!--link ATM to AuditLog--><g class="link" data-entity-1="ATM" data-entity-2="AuditLog" data-source-line="94" data-uid="lnk23" id="link_ATM_AuditLog"><path codeLine="94" d="M384,327.0273 C376.02,374.4973 363.66,448.0073 355.18,498.4173" fill="none" id="ATM-AuditLog" style="stroke:#000000;stroke-width:1;"/><polygon fill="#000000" points="382.4309,418.1877,386.829,409.7552,381.0325,408.7805,382.4309,418.1877" style="stroke:#000000;stroke-width:1;"/><text fill="#000000" font-family="Verdana" font-size="13" lengthAdjust="spacing" textLength="48.3755" x="392.26" y="418.4271">records</text><text fill="#000000" font-family="Verdana" font-size="13" lengthAdjust="spacing" textLength="8.2646" x="374.3511" y="347.9198">1</text><text fill="#000000" font-family="Verdana" font-size="13" lengthAdjust="spacing" textLength="25.9873" x="329.8363" y="488.3384">0..*</text></g><!--link Transaction to Account--><g class="link" data-entity-1="Transaction" data-entity-2="Account" data-source-line="95" data-uid="lnk24" id="link_Transaction_Account"><path codeLine="95" d="M725.22,834.2573 C749.37,859.0473 776.2,886.6073 799.65,910.6873" fill="none" id="Transaction-Account" style="stroke:#000000;stroke-width:1;"/><polygon fill="#000000" points="779.2384,876.5091,775.0334,867.9786,770.8224,872.0794,779.2384,876.5091" style="stroke:#000000;stroke-width:1;"/><text fill="#000000" font-family="Verdana" font-size="13" lengthAdjust="spacing" textLength="43.3608" x="784.75" y="878.0971">affects</text><text fill="#000000" font-family="Verdana" font-size="13" lengthAdjust="spacing" textLength="8.2646" x="723.5577" y="855.0632">1</text><text fill="#000000" font-family="Verdana" font-size="13" lengthAdjust="spacing" textLength="8.2646" x="784.0104" y="900.4348">1</text></g><!--SRC=[XLNVRzem47xdh_3wCccYLVlAmwIGc3KQ3LsIjjfJPH83LXqxYo_jsDJ_VMT3mARTze1yFb- - - -ud7s336qvQoOGQcIUXMjQnXbII6HC1T6BP0qyhhGhnYvFBKvEPLb30LdAorB8UZK00oebk48xSw9fBSawYyeOKMmEy6OtSLsJAr1FvFI9aYKACPcH22dIcrgXJh0dkvaMi83Hw7O0ijCLXqAIr_v7K5GEXLG0437g36ghwXlnUPFCqesEocCtsmbtvk9Wz5ZI_JsFwUlGIzmPqmpldgjfVGdyhqHd8JfZZnszqDGE-M4r51njK9tZpegagtIlOHRIJixvPecCFOFzGRbj-22M-fl7NDFio9aLqZsVnwd8hcQgiKS8hqJ3fo7STLzKsP2JaTYuQ0PxfCNRMrRkuKNZBnce3AWcTfkMOn3bDqjBIu3zRqRbQs627c0bfHL0SOQPOioTkiphLMdAcZYGARemjfkLXTdAOVYnj1wLe1dmhMj-gVgiyQOCeBjDxh7wykBcTqv8cOrAcDpHvn7RmUg3ic3AiWe467EyX5UyXICn3MbudUVGGpSSaeRUBmgQfpAEicD5yJARHFCfY-fXct-xI_BlD76jSD_olVe1XOKnD-yymRscMk0xnufn5wToUERsdUK4JBzoSLroqkrRiTd8OPeidy3g2q2jk2k2EzEcenini4c5Qhin-akhXTf903KnQw-WPEvCjPTZ2TgXolX9IUltal0Uky6SueC6kTtUNq57DbMw46lR4qSMFdYdSP3RBAOQpvfqtetqjOAxN3bVgTGZ9d_bXDFzNe9e3nXTawYFcNJe-PYDQCt9xykpgZ9oVut5nyUdCRRm9qIt7cUA6V7xFvh2l9ZWjtRCpE-XEuFOh1o5VbBKR52U8TWjCS4Y95CeEAMXhYrm6kqjdDmpgX6oq0OitQ0vuFXZhyUy7Kusx6Z6Ns_Vi7Qu_VHFNPFW7O-7z1uyAIaC7JyYQgqEsVCgEYj-K0NBuT9eEhy5ihB8sx-RZq2qJEqMwg__6-Sel1LkjUEMozmS0]--></g></svg>