<svg xmlns="http://www.w3.org/2000/svg" xmlns:xlink="http://www.w3.org/1999/xlink" contentStyleType="text/css" data-diagram-type="ACTIVITY" height="347px" preserveAspectRatio="none" style="width:424px;height:347px;background:#FFFFFF;" version="1.1" viewBox="0 0 424 347" width="424px" zoomAndPan="magnify"><title>Activity Diagram - Print Receipt</title><defs/><g><g class="title" data-source-line="2"><text fill="#000000" font-family="Verdana" font-size="22" font-weight="bold" lengthAdjust="spacing" textLength="391.7031" x="15" y="37.1182">Activity Diagram - Print Receipt</text></g><ellipse cx="203.3516" cy="62.7373" fill="#FFFFFF" rx="10" ry="10" style="stroke:#000000;stroke-width:1;"/><rect fill="#FFFFFF" height="49.168" rx="12.5" ry="12.5" style="stroke:#000000;stroke-width:1;" width="163.1973" x="121.7529" y="141.4216"/><text fill="#000000" font-family="Verdana" font-size="12" lengthAdjust="spacing" textLength="138.3633" x="131.7529" y="163.4861">ATM generates Receipt</text><text fill="#000000" font-family="Verdana" font-size="12" lengthAdjust="spacing" textLength="143.1973" x="131.7529" y="178.0701">with Transaction details</text><rect fill="#FFFFFF" height="34.584" rx="12.5" ry="12.5" style="stroke:#000000;stroke-width:1;" width="133.0039" x="136.8496" y="220.7976"/><text fill="#000000" font-family="Verdana" font-size="12" lengthAdjust="spacing" textLength="113.0039" x="146.8496" y="242.8621">ATM prints Receipt</text><polygon fill="#FFFFFF" points="127.9199,92.7373,278.7832,92.7373,290.7832,104.7373,278.7832,116.7373,127.9199,116.7373,115.9199,104.7373,127.9199,92.7373" style="stroke:#000000;stroke-width:1;"/><text fill="#000000" font-family="Verdana" font-size="11" lengthAdjust="spacing" textLength="18.7935" x="207.3516" y="127.7964">yes</text><text fill="#000000" font-family="Verdana" font-size="11" lengthAdjust="spacing" textLength="150.8633" x="127.9199" y="109.1121">Customer wants a Receipt?</text><text fill="#000000" font-family="Verdana" font-size="11" lengthAdjust="spacing" textLength="13.6372" x="290.7832" y="102.4277">no</text><polygon fill="#FFFFFF" points="203.3516,275.3816,215.3516,287.3816,203.3516,299.3816,191.3516,287.3816,203.3516,275.3816" style="stroke:#000000;stroke-width:1;"/><ellipse cx="203.3516" cy="330.3816" fill="none" rx="11" ry="11" style="stroke:#000000;stroke-width:1;"/><ellipse cx="203.3516" cy="330.3816" fill="#FFFFFF" rx="6" ry="6" style="stroke:#000000;stroke-width:1;"/><line style="stroke:#000000;stroke-width:1;" x1="203.3516" x2="203.3516" y1="190.5896" y2="220.7976"/><polygon fill="#000000" points="199.3516,210.7976,203.3516,220.7976,207.3516,210.7976,203.3516,214.7976" style="stroke:#000000;stroke-width:1;"/><line style="stroke:#000000;stroke-width:1;" x1="203.3516" x2="203.3516" y1="116.7373" y2="141.4216"/><polygon fill="#000000" points="199.3516,131.4216,203.3516,141.4216,207.3516,131.4216,203.3516,135.4216" style="stroke:#000000;stroke-width:1;"/><line style="stroke:#000000;stroke-width:1;" x1="290.7832" x2="302.7832" y1="104.7373" y2="104.7373"/><polygon fill="#000000" points="298.7832,190.7976,302.7832,200.7976,306.7832,190.7976,302.7832,194.7976" style="stroke:#000000;stroke-width:1;"/><line style="stroke:#000000;stroke-width:1;" x1="302.7832" x2="302.7832" y1="104.7373" y2="287.3816"/><line style="stroke:#000000;stroke-width:1;" x1="302.7832" x2="215.3516" y1="287.3816" y2="287.3816"/><polygon fill="#000000" points="225.3516,283.3816,215.3516,287.3816,225.3516,291.3816,221.3516,287.3816" style="stroke:#000000;stroke-width:1;"/><line style="stroke:#000000;stroke-width:1;" x1="203.3516" x2="203.3516" y1="255.3816" y2="275.3816"/><polygon fill="#000000" points="199.3516,265.3816,203.3516,275.3816,207.3516,265.3816,203.3516,269.3816" style="stroke:#000000;stroke-width:1;"/><line style="stroke:#000000;stroke-width:1;" x1="203.3516" x2="203.3516" y1="72.7373" y2="92.7373"/><polygon fill="#000000" points="199.3516,82.7373,203.3516,92.7373,207.3516,82.7373,203.3516,86.7373" style="stroke:#000000;stroke-width:1;"/><line style="stroke:#000000;stroke-width:1;" x1="203.3516" x2="203.3516" y1="299.3816" y2="319.3816"/><polygon fill="#000000" points="199.3516,309.3816,203.3516,319.3816,207.3516,309.3816,203.3516,313.3816" style="stroke:#000000;stroke-width:1;"/><!--SRC=[FOwn3e9044Jx-ugnWy8VaC8GRKsCeRJPm0AR77laTfNmzqA1rJHlvit9HvuOSoJHuEAHKRSkN_4LTw4XquGpdbdKyUAMPVOGp2bl8JsAsySyJPonaBg13kXQObjM52jR6O1BtJmmi78cPpkejoxY8vfCQhHfaw9Z9ubM7PrvL_yBLU1eZ49J6LWxwVSpQGu_]--></g></svg>