<svg xmlns="http://www.w3.org/2000/svg" xmlns:xlink="http://www.w3.org/1999/xlink" contentStyleType="text/css" data-diagram-type="ACTIVITY" height="689px" preserveAspectRatio="none" style="width:537px;height:689px;background:#FFFFFF;" version="1.1" viewBox="0 0 537 689" width="537px" zoomAndPan="magnify"><title>Activity Diagram - Transfer Funds</title><defs/><g><g class="title" data-source-line="2"><text fill="#000000" font-family="Verdana" font-size="22" font-weight="bold" lengthAdjust="spacing" textLength="417.4092" x="58.562" y="37.1182">Activity Diagram - Transfer Funds</text></g><ellipse cx="261.7837" cy="62.7373" fill="#FFFFFF" rx="10" ry="10" style="stroke:#000000;stroke-width:1;"/><rect fill="#FFFFFF" height="34.584" rx="12.5" ry="12.5" style="stroke:#000000;stroke-width:1;" width="216.2246" x="153.6714" y="92.7373"/><text fill="#000000" font-family="Verdana" font-size="12" lengthAdjust="spacing" textLength="196.2246" x="163.6714" y="114.8018">Customer selects target Account</text><rect fill="#FFFFFF" height="34.584" rx="12.5" ry="12.5" style="stroke:#000000;stroke-width:1;" width="222.2949" x="150.6362" y="147.3213"/><text fill="#000000" font-family="Verdana" font-size="12" lengthAdjust="spacing" textLength="202.2949" x="160.6362" y="169.3857">Customer enters transfer amount</text><rect fill="#FFFFFF" height="49.168" rx="12.5" ry="12.5" style="stroke:#000000;stroke-width:1;" width="259.543" x="132.0122" y="201.9053"/><text fill="#000000" font-family="Verdana" font-size="12" lengthAdjust="spacing" textLength="207.5742" x="142.0122" y="223.9697">Bank Backend creates Transaction</text><text fill="#000000" font-family="Verdana" font-size="12" lengthAdjust="spacing" textLength="239.543" x="142.0122" y="238.5537">(type = TRANSFER, status = PENDING)</text><rect fill="#FFFFFF" height="34.584" rx="12.5" ry="12.5" style="stroke:#000000;stroke-width:1;" width="241.9414" x="140.813" y="271.0732"/><text fill="#000000" font-family="Verdana" font-size="12" lengthAdjust="spacing" textLength="221.9414" x="150.813" y="293.1377">Bank Backend debits source Account</text><rect fill="#FFFFFF" height="34.584" rx="12.5" ry="12.5" style="stroke:#000000;stroke-width:1;" width="242.5977" x="140.4849" y="325.6572"/><text fill="#000000" font-family="Verdana" font-size="12" lengthAdjust="spacing" textLength="222.5977" x="150.4849" y="347.7217">Bank Backend credits target Account</text><polygon fill="#FFFFFF" points="171.5144,380.2412,352.053,380.2412,364.053,392.2412,352.053,404.2412,171.5144,404.2412,159.5144,392.2412,171.5144,380.2412" style="stroke:#000000;stroke-width:1;"/><text fill="#000000" font-family="Verdana" font-size="11" lengthAdjust="spacing" textLength="180.5386" x="171.5144" y="396.616">Transfer processed successfully?</text><text fill="#000000" font-family="Verdana" font-size="11" lengthAdjust="spacing" textLength="18.7935" x="140.7209" y="389.9316">yes</text><text fill="#000000" font-family="Verdana" font-size="11" lengthAdjust="spacing" textLength="13.6372" x="364.053" y="389.9316">no</text><rect fill="#FFFFFF" height="49.168" rx="12.5" ry="12.5" style="stroke:#000000;stroke-width:1;" width="231.5996" x="9.6006" y="414.2412"/><text fill="#000000" font-family="Verdana" font-size="12" lengthAdjust="spacing" textLength="211.5996" x="19.6006" y="436.3057">Bank Backend updates Transaction</text><text fill="#000000" font-family="Verdana" font-size="12" lengthAdjust="spacing" textLength="139.5879" x="19.6006" y="450.8896">(status = COMPLETED)</text><rect fill="#FFFFFF" height="34.584" rx="12.5" ry="12.5" style="stroke:#000000;stroke-width:1;" width="238.8008" x="6" y="497.9932"/><text fill="#000000" font-family="Verdana" font-size="12" lengthAdjust="spacing" textLength="218.8008" x="16" y="520.0576">Bank Backend writes AuditLog entry</text><ellipse cx="125.4004" cy="563.5771" fill="none" rx="11" ry="11" style="stroke:#000000;stroke-width:1;"/><ellipse cx="125.4004" cy="563.5771" fill="#FFFFFF" rx="6" ry="6" style="stroke:#000000;stroke-width:1;"/><rect fill="#FFFFFF" height="34.584" rx="12.5" ry="12.5" style="stroke:#000000;stroke-width:1;" width="266.7324" x="264.8008" y="414.2412"/><text fill="#000000" font-family="Verdana" font-size="12" lengthAdjust="spacing" textLength="246.7324" x="274.8008" y="436.3057">Bank Backend reverses Account changes</text><rect fill="#FFFFFF" height="49.168" rx="12.5" ry="12.5" style="stroke:#000000;stroke-width:1;" width="231.5996" x="282.3672" y="483.4092"/><text fill="#000000" font-family="Verdana" font-size="12" lengthAdjust="spacing" textLength="211.5996" x="292.3672" y="505.4736">Bank Backend updates Transaction</text><text fill="#000000" font-family="Verdana" font-size="12" lengthAdjust="spacing" textLength="109.582" x="292.3672" y="520.0576">(status = FAILED)</text><rect fill="#FFFFFF" height="34.584" rx="12.5" ry="12.5" style="stroke:#000000;stroke-width:1;" width="238.8008" x="278.7666" y="552.5771"/><text fill="#000000" font-family="Verdana" font-size="12" lengthAdjust="spacing" textLength="218.8008" x="288.7666" y="574.6416">Bank Backend writes AuditLog entry</text><rect fill="#FFFFFF" height="34.584" rx="12.5" ry="12.5" style="stroke:#000000;stroke-width:1;" width="166.0156" x="315.1592" y="607.1611"/><text fill="#000000" font-family="Verdana" font-size="12" lengthAdjust="spacing" textLength="146.0156" x="325.1592" y="629.2256">Display "Transfer failed"</text><ellipse cx="398.167" cy="672.7451" fill="none" rx="11" ry="11" style="stroke:#000000;stroke-width:1;"/><ellipse cx="398.167" cy="672.7451" fill="#FFFFFF" rx="6" ry="6" style="stroke:#000000;stroke-width:1;"/><line style="stroke:#000000;stroke-width:1;" x1="261.7837" x2="261.7837" y1="72.7373" y2="92.7373"/><polygon fill="#000000" points="257.7837,82.7373,261.7837,92.7373,265.7837,82.7373,261.7837,86.7373" style="stroke:#000000;stroke-width:1;"/><line style="stroke:#000000;stroke-width:1;" x1="261.7837" x2="261.7837" y1="127.3213" y2="147.3213"/><polygon fill="#000000" points="257.7837,137.3213,261.7837,147.3213,265.7837,137.3213,261.7837,141.3213" style="stroke:#000000;stroke-width:1;"/><line style="stroke:#000000;stroke-width:1;" x1="261.7837" x2="261.7837" y1="181.9053" y2="201.9053"/><polygon fill="#000000" points="257.7837,191.9053,261.7837,201.9053,265.7837,191.9053,261.7837,195.9053" style="stroke:#000000;stroke-width:1;"/><line style="stroke:#000000;stroke-width:1;" x1="261.7837" x2="261.7837" y1="251.0732" y2="271.0732"/><polygon fill="#000000" points="257.7837,261.0732,261.7837,271.0732,265.7837,261.0732,261.7837,265.0732" style="stroke:#000000;stroke-width:1;"/><line style="stroke:#000000;stroke-width:1;" x1="261.7837" x2="261.7837" y1="305.6572" y2="325.6572"/><polygon fill="#000000" points="257.7837,315.6572,261.7837,325.6572,265.7837,315.6572,261.7837,319.6572" style="stroke:#000000;stroke-width:1;"/><line style="stroke:#000000;stroke-width:1;" x1="125.4004" x2="125.4004" y1="463.4092" y2="497.9932"/><polygon fill="#000000" points="121.4004,487.9932,125.4004,497.9932,129.4004,487.9932,125.4004,491.9932" style="stroke:#000000;stroke-width:1;"/><line style="stroke:#000000;stroke-width:1;" x1="125.4004" x2="125.4004" y1="532.5771" y2="552.5771"/><polygon fill="#000000" points="121.4004,542.5771,125.4004,552.5771,129.4004,542.5771,125.4004,546.5771" style="stroke:#000000;stroke-width:1;"/><line style="stroke:#000000;stroke-width:1;" x1="398.167" x2="398.167" y1="448.8252" y2="483.4092"/><polygon fill="#000000" points="394.167,473.4092,398.167,483.4092,402.167,473.4092,398.167,477.4092" style="stroke:#000000;stroke-width:1;"/><line style="stroke:#000000;stroke-width:1;" x1="398.167" x2="398.167" y1="532.5771" y2="552.5771"/><polygon fill="#000000" points="394.167,542.5771,398.167,552.5771,402.167,542.5771,398.167,546.5771" style="stroke:#000000;stroke-width:1;"/><line style="stroke:#000000;stroke-width:1;" x1="398.167" x2="398.167" y1="587.1611" y2="607.1611"/><polygon fill="#000000" points="394.167,597.1611,398.167,607.1611,402.167,597.1611,398.167,601.1611" style="stroke:#000000;stroke-width:1;"/><line style="stroke:#000000;stroke-width:1;" x1="398.167" x2="398.167" y1="641.7451" y2="661.7451"/><polygon fill="#000000" points="394.167,651.7451,398.167,661.7451,402.167,651.7451,398.167,655.7451" style="stroke:#000000;stroke-width:1;"/><line style="stroke:#000000;stroke-width:1;" x1="159.5144" x2="125.4004" y1="392.2412" y2="392.2412"/><line style="stroke:#000000;stroke-width:1;" x1="125.4004" x2="125.4004" y1="392.2412" y2="414.2412"/><polygon fill="#000000" points="121.4004,404.2412,125.4004,414.2412,129.4004,404.2412,125.4004,408.2412" style="stroke:#000000;stroke-width:1;"/><line style="stroke:#000000;stroke-width:1;" x1="364.053" x2="398.167" y1="392.2412" y2="392.2412"/><line style="stroke:#000000;stroke-width:1;" x1="398.167" x2="398.167" y1="392.2412" y2="414.2412"/><polygon fill="#000000" points="394.167,404.2412,398.167,414.2412,402.167,404.2412,398.167,408.2412" style="stroke:#000000;stroke-width:1;"/><line style="stroke:#000000;stroke-width:1;" x1="261.7837" x2="261.7837" y1="360.2412" y2="380.2412"/><polygon fill="#000000" points="257.7837,370.2412,261.7837,380.2412,265.7837,370.2412,261.7837,374.2412" style="stroke:#000000;stroke-width:1;"/><!--SRC=[bPB1Ri8m44Jl_eejfo2rFm2gga12XKGfeXnxSUrDi4ZioBkcojzt8rHAQI_ShDNix9kHxtYFBKBNQESLEsuGSiFkwBY7mkawwXOUO1UrfmeZB9Atf1InZgpKP9w8GojpmWOD4yYyHXOB4vBdwOK2FMCKmRUJRayADPbfVu2PDWVq5an4pKYdYrf8Wd_t6VSTmYFijldwRL5kxq40E96CDkMwMAwVnzCh7uiVJdWef6ZmWkVwc7N_K2jNGNREtCLWa0WjK3B3gqfDqp-DGQhpaFL8OmNmspbrzfyOP-hvwyjcLUxAGhYlLp-Z6pRp96YhK0_5nNwGIP6TmeOGCX_-denub8A7pLCCC7ljQwJfhN2BVBcwZMnIE98VrCFeN5gbNODszCFjhQlK5m00]--></g></svg>