<svg xmlns="http://www.w3.org/2000/svg" xmlns:xlink="http://www.w3.org/1999/xlink" contentStyleType="text/css" data-diagram-type="DESCRIPTION" height="597px" preserveAspectRatio="none" style="width:682px;height:597px;background:#FFFFFF;" version="1.1" viewBox="0 0 682 597" width="682px" zoomAndPan="magnify"><title>Use-Case Diagram - ATM System</title><defs/><g><g class="title" data-source-line="5"><text fill="#000000" font-family="sans-serif" font-size="14" font-weight="bold" lengthAdjust="spacing" textLength="242.5869" x="213.1278" y="23.5352">Use-Case Diagram - ATM System</text></g><!--cluster ATM System--><g class="cluster" data-entity="ATM System" data-source-line="14" data-uid="ent0004" id="cluster_ATM System"><rect fill="none" height="388" rx="2.5" ry="2.5" style="stroke:#181818;stroke-width:1;" width="416.37" x="118.95" y="44.4883"/><text fill="#000000" font-family="sans-serif" font-size="14" font-weight="bold" lengthAdjust="spacing" textLength="88.8193" x="282.7253" y="60.0234">ATM System</text></g><!--entity UC_Withdraw--><g class="entity" data-entity="UC_Withdraw" data-source-line="18" data-uid="ent0005" id="entity_UC_Withdraw"><ellipse cx="203.5534" cy="200.491" fill="#F1F1F1" rx="68.0634" ry="16.0127" style="stroke:#181818;stroke-width:0.5;"/><text fill="#000000" font-family="sans-serif" font-size="14" lengthAdjust="spacing" textLength="100.6797" x="153.2136" y="205.2351">Withdraw Cash</text></g><!--entity UC_Balance--><g class="entity" data-entity="UC_Balance" data-source-line="19" data-uid="ent0006" id="entity_UC_Balance"><ellipse cx="203.5491" cy="314.4921" fill="#F1F1F1" rx="66.7191" ry="15.7438" style="stroke:#181818;stroke-width:0.5;"/><text fill="#000000" font-family="sans-serif" font-size="14" lengthAdjust="spacing" textLength="97.1797" x="154.9592" y="319.2362">Check Balance</text></g><!--entity UC_Transfer--><g class="entity" data-entity="UC_Transfer" data-source-line="20" data-uid="ent0007" id="entity_UC_Transfer"><ellipse cx="203.5544" cy="381.4892" fill="#F1F1F1" rx="68.6044" ry="16.1209" style="stroke:#181818;stroke-width:0.5;"/><text fill="#000000" font-family="sans-serif" font-size="14" lengthAdjust="spacing" textLength="102.0742" x="152.5173" y="386.2333">Transfer Funds</text></g><!--entity UC_Auth--><g class="entity" data-entity="UC_Auth" data-source-line="23" data-uid="ent0008" id="entity_UC_Auth"><ellipse cx="456.2415" cy="342.4912" fill="#F1F1F1" rx="63.0815" ry="26.0429" style="stroke:#181818;stroke-width:0.5;"/><text fill="#000000" font-family="sans-serif" font-size="14" lengthAdjust="spacing" textLength="85.9824" x="413.2503" y="339.3825">Authenticate</text><text fill="#000000" font-family="sans-serif" font-size="14" lengthAdjust="spacing" textLength="81.7988" x="415.3421" y="355.8708">(Card &amp; PIN)</text></g><!--entity UC_Receipt--><g class="entity" data-entity="UC_Receipt" data-source-line="24" data-uid="ent0009" id="entity_UC_Receipt"><ellipse cx="456.237" cy="210.4917" fill="#F1F1F1" rx="62.417" ry="14.8834" style="stroke:#181818;stroke-width:0.5;"/><text fill="#000000" font-family="sans-serif" font-size="14" lengthAdjust="spacing" textLength="85.5859" x="413.4441" y="215.2358">Print Receipt</text></g><!--entity customer--><g class="entity" data-entity="customer" data-source-line="9" data-uid="ent0002" id="entity_customer"><ellipse cx="38.9731" cy="300.4866" fill="#F1F1F1" rx="16" ry="16" style="stroke:#181818;stroke-width:0.5;"/><path d="M38.9731,320.4866 C42.9731,320.4866 45.9731,320.4866 49.9731,316.4866 C57.9731,316.4866 65.9731,324.4866 65.9731,332.4866 L65.9731,336.4866 C65.9731,340.4866 61.9731,344.4866 57.9731,344.4866 L19.9731,344.4866 C15.9731,344.4866 11.9731,340.4866 11.9731,336.4866 L11.9731,332.4866 C11.9731,324.4866 19.9731,316.4866 27.9731,316.4866 C31.9731,320.4866 34.9731,320.4866 38.9731,320.4866" fill="#F1F1F1" style="stroke:#181818;stroke-width:0.5;"/><text fill="#000000" font-family="sans-serif" font-size="14" lengthAdjust="spacing" textLength="65.9463" x="6" y="358.5217">Customer</text><text fill="#000000" font-family="sans-serif" font-size="14" font-style="italic" lengthAdjust="spacing" textLength="60.3613" x="8.7925" y="281.0334">&#171;Person&#187;</text></g><!--entity bank--><g class="entity" data-entity="bank" data-source-line="11" data-uid="ent0003" id="entity_bank"><ellipse cx="629.0812" cy="461.4866" fill="#F1F1F1" rx="16" ry="16" style="stroke:#181818;stroke-width:0.5;"/><path d="M629.0812,481.4866 C633.0812,481.4866 636.0812,481.4866 640.0812,477.4866 C648.0812,477.4866 656.0812,485.4866 656.0812,493.4866 L656.0812,497.4866 C656.0812,501.4866 652.0812,505.4866 648.0812,505.4866 L610.0812,505.4866 C606.0812,505.4866 602.0812,501.4866 602.0812,497.4866 L602.0812,493.4866 C602.0812,485.4866 610.0812,477.4866 618.0812,477.4866 C622.0812,481.4866 625.0812,481.4866 629.0812,481.4866" fill="#F1F1F1" style="stroke:#181818;stroke-width:0.5;"/><text fill="#000000" font-family="sans-serif" font-size="14" lengthAdjust="spacing" textLength="93.5225" x="582.32" y="519.5217">Bank Backend</text><text fill="#000000" font-family="sans-serif" font-size="14" font-style="italic" lengthAdjust="spacing" textLength="62.7676" x="597.6974" y="442.0334">&#171;System&#187;</text></g><!--link customer to UC_Withdraw--><g class="link" data-entity-1="customer" data-entity-2="UC_Withdraw" data-source-line="28" data-uid="lnk10" id="link_customer_UC_Withdraw"><path d="M72.09,291.9683 C104.11,269.5183 152.43,235.6383 180.4,216.0283" fill="none" id="customer-UC_Withdraw" style="stroke:#181818;stroke-width:1;"/></g><!--link customer to UC_Balance--><g class="link" data-entity-1="customer" data-entity-2="UC_Balance" data-source-line="29" data-uid="lnk11" id="link_customer_UC_Balance"><path d="M72.09,314.4883 C90.51,314.4883 114.32,314.4883 136.54,314.4883" fill="none" id="customer-UC_Balance" style="stroke:#181818;stroke-width:1;"/></g><!--link customer to UC_Transfer--><g class="link" data-entity-1="customer" data-entity-2="UC_Transfer" data-source-line="30" data-uid="lnk12" id="link_customer_UC_Transfer"><path d="M72.24,330.1583 C84.29,335.8283 98.15,342.1583 110.95,347.4883 C128.17,354.6783 147.5,361.9683 163.95,367.9383" fill="none" id="customer-UC_Transfer" style="stroke:#181818;stroke-width:1;"/></g><!--link UC_Withdraw to UC_Auth--><g class="link" data-entity-1="UC_Withdraw" data-entity-2="UC_Auth" data-source-line="35" data-uid="lnk13" id="link_UC_Withdraw_UC_Auth"><path d="M256.62,190.1683 C289.2,186.4183 330.95,186.7383 363.16,204.4883 C374.73,210.8683 413.915,273.8742 436.945,311.9542" fill="none" id="UC_Withdraw-to-UC_Auth" style="stroke:#181818;stroke-width:1;stroke-dasharray:7,7;"/><polygon fill="#181818" points="440.05,317.0883,438.8152,307.3171,437.4625,312.8099,431.9698,311.4571,440.05,317.0883" style="stroke:#181818;stroke-width:1;"/><text fill="#000000" font-family="sans-serif" font-size="13" lengthAdjust="spacing" textLength="59.3569" x="303.16" y="185.4666">&#171;include&#187;</text></g><!--link UC_Balance to UC_Auth--><g class="link" data-entity-1="UC_Balance" data-entity-2="UC_Auth" data-source-line="36" data-uid="lnk14" id="link_UC_Balance_UC_Auth"><path d="M262.06,322.4883 C275.22,324.2283 289.16,325.9883 302.16,327.4883 C332.4,330.9883 360.0866,333.7737 388.1266,336.4237" fill="none" id="UC_Balance-to-UC_Auth" style="stroke:#181818;stroke-width:1;stroke-dasharray:7,7;"/><polygon fill="#181818" points="394.1,336.9883,385.5163,332.1592,389.1222,336.5178,384.7636,340.1237,394.1,336.9883" style="stroke:#181818;stroke-width:1;"/><text fill="#000000" font-family="sans-serif" font-size="13" lengthAdjust="spacing" textLength="59.3569" x="303.16" y="324.0566">&#171;include&#187;</text></g><!--link UC_Transfer to UC_Auth--><g class="link" data-entity-1="UC_Transfer" data-entity-2="UC_Auth" data-source-line="37" data-uid="lnk15" id="link_UC_Transfer_UC_Auth"><path d="M263.36,373.3683 C293.27,369.1283 330.18,363.7483 363.16,358.4883 C374.37,356.7083 380.4266,355.7139 391.8966,353.7439" fill="none" id="UC_Transfer-to-UC_Auth" style="stroke:#181818;stroke-width:1;stroke-dasharray:7,7;"/><polygon fill="#181818" points="397.81,352.7283,388.2628,350.3095,392.8822,353.5747,389.617,358.194,397.81,352.7283" style="stroke:#181818;stroke-width:1;"/><text fill="#000000" font-family="sans-serif" font-size="13" lengthAdjust="spacing" textLength="59.3569" x="303.16" y="355.0566">&#171;include&#187;</text></g><!--link UC_Withdraw to UC_Receipt--><g class="link" data-entity-1="UC_Withdraw" data-entity-2="UC_Receipt" data-source-line="42" data-uid="lnk16" id="link_UC_Withdraw_UC_Receipt"><path d="M221.26,184.7983 C239.51,168.8283 270.39,145.0983 302.16,135.4883 C328.1,127.6383 337.61,126.4083 363.16,135.4883 C396.76,147.4483 423.0312,172.9985 439.1012,191.2185" fill="none" id="UC_Withdraw-to-UC_Receipt" style="stroke:#181818;stroke-width:1;stroke-dasharray:7,7;"/><polygon fill="#181818" points="443.07,195.7183,440.1166,186.3227,439.7626,191.9684,434.1169,191.6144,443.07,195.7183" style="stroke:#181818;stroke-width:1;"/><text fill="#000000" font-family="sans-serif" font-size="13" lengthAdjust="spacing" textLength="57.1924" x="304.16" y="125.6966">&#171;extend&#187;</text></g><!--link UC_Balance to UC_Receipt--><g class="link" data-entity-1="UC_Balance" data-entity-2="UC_Receipt" data-source-line="43" data-uid="lnk17" id="link_UC_Balance_UC_Receipt"><path d="M223.23,299.2283 C242.09,284.5383 272.58,262.6483 302.16,249.4883 C334.73,234.9983 367.8191,226.3576 398.2791,220.1976" fill="none" id="UC_Balance-to-UC_Receipt" style="stroke:#181818;stroke-width:1;stroke-dasharray:7,7;"/><polygon fill="#181818" points="404.16,219.0083,394.5457,216.8716,399.2592,219.9994,396.1315,224.7129,404.16,219.0083" style="stroke:#181818;stroke-width:1;"/><text fill="#000000" font-family="sans-serif" font-size="13" lengthAdjust="spacing" textLength="57.1924" x="304.16" y="226.1766">&#171;extend&#187;</text></g><!--link UC_Transfer to UC_Receipt--><g class="link" data-entity-1="UC_Transfer" data-entity-2="UC_Receipt" data-source-line="44" data-uid="lnk18" id="link_UC_Transfer_UC_Receipt"><path d="M240.18,367.4683 C251.11,362.1783 262.73,355.4683 272.16,347.4883 C289.39,332.8983 285.05,321.2283 302.16,306.4883 C325.35,286.5083 336.98,290.3683 363.16,274.4883 C389.12,258.7383 412.8069,241.9738 431.1169,228.5038" fill="none" id="UC_Transfer-to-UC_Receipt" style="stroke:#181818;stroke-width:1;stroke-dasharray:7,7;"/><polygon fill="#181818" points="435.95,224.9483,426.3301,227.0595,431.9225,227.9112,431.0708,233.5036,435.95,224.9483" style="stroke:#181818;stroke-width:1;"/><text fill="#000000" font-family="sans-serif" font-size="13" lengthAdjust="spacing" textLength="57.1924" x="304.16" y="271.0566">&#171;extend&#187;</text></g><!--link UC_Withdraw to bank--><g class="link" data-entity-1="UC_Withdraw" data-entity-2="bank" data-source-line="49" data-uid="lnk19" id="link_UC_Withdraw_bank"><path d="M221.14,216.4483 C236.31,231.8483 258.4,256.4483 272.16,281.4883 C293.26,319.9283 270.97,344.6583 302.16,375.4883 C342.08,414.9783 501.88,450.8683 581.92,466.7983" fill="none" id="UC_Withdraw-bank" style="stroke:#181818;stroke-width:1;"/></g><!--link UC_Balance to bank--><g class="link" data-entity-1="UC_Balance" data-entity-2="bank" data-source-line="50" data-uid="lnk20" id="link_UC_Balance_bank"><path d="M244.66,327.1183 C254.88,332.0383 264.99,338.6783 272.16,347.4883 C306.3,389.4683 259.95,431.6283 302.16,465.4883 C382.4,529.8883 512.98,507.8883 581.98,489.7083" fill="none" id="UC_Balance-bank" style="stroke:#181818;stroke-width:1;"/></g><!--link UC_Transfer to bank--><g class="link" data-entity-1="UC_Transfer" data-entity-2="bank" data-source-line="51" data-uid="lnk21" id="link_UC_Transfer_bank"><path d="M209.05,397.8283 C219.22,431.1283 247.45,506.2883 302.16,536.4883 C399.49,590.2283 447.46,573.4583 552.32,536.4883 C562.83,532.7883 572.96,526.9383 582.2,520.2983" fill="none" id="UC_Transfer-bank" style="stroke:#181818;stroke-width:1;"/></g><!--link UC_Auth to bank--><g class="link" data-entity-1="UC_Auth" data-entity-2="bank" data-source-line="52" data-uid="lnk22" id="link_UC_Auth_bank"><path d="M488.33,365.1683 C507.03,378.9383 531.22,396.9983 552.32,413.4883 C561.96,421.0283 572.17,429.2283 581.87,437.1283" fill="none" id="UC_Auth-bank" style="stroke:#181818;stroke-width:1;"/></g><!--SRC=[ZPJDZjem4CVlUOfH3WMaGhLKlI24j4jRQGzReSAgbqhLu0o9HR0ZsrcAgZxBtYhrxVOHEiuNXgNTvX38-3yU_-R3EMqSE0r6ffc3H1eIJceLsQrK1HhS0GgdpT8TSWBSazKx2XOB55jCgLxslgZIdAB8ISU6Uql3ELg2zn9JBn_2zUeEbWVhQ1T5FHWEsUBtj_ul6-QbTHp1JA0mSeVcK8U7ZT4xk2cjL6GjB8mM_hV_zFZug_CPHBKsRWqne0NHVC1qkY1ZjPhDECuDgYs_n9PKCW5R5eKsJghqnN2_JroxaA6n2hlsXkcqHkMG3Mpz3MjTgiJJUUekRH0VinF3ZoW2wC4TIWKbvr1m8ZbDG2WoJdLXo99o5X1IZJcuZBpCL4vxz2jSLjPAUY3eMwBdG1oei0FsO4U_FSHVfCiIWtlWicKnyCCiz_DlhJtKpZCI7Zf79IZGDfPGkZAex8QBy96vRTn9MtkDkZoMeGCETxak6L8vAT3HLzMVeqdW5InkFmtYPZ-l23qMHYe7dqcGB5nrnE2fNPh5w6TRehPxUDrg8T6FGzsUNIknAip9cRtbFpCVMUiujqhaPUAd9gzZPB9eno0WvHMG5dR83SEjTe0rRRJXMLG7S7vBh0Us1_tBzOMhqTLmF1eFek3CC1hDseHnAYRSgh8-3_VgaG5UqdM5_PUk0VxmtV5qNEIjwbIDdxz4V3qyiowyZdiRDuv3S1-R_sE6TwCnlE7tsulGJSchKr9rgClGVzETGr_KDT3XnV2yetgmuh4zqJnWBhdIFEh2KEAR07Fxcg_32ey7eXUcW5UmogdG9k6xe4oaWrodzeIRp-7lenF6mDRn1BQca4VT7m00]--></g></svg>