<svg xmlns="http://www.w3.org/2000/svg" xmlns:xlink="http://www.w3.org/1999/xlink" contentStyleType="text/css" data-diagram-type="ACTIVITY" height="792px" preserveAspectRatio="none" style="width:1217px;height:792px;background:#FFFFFF;" version="1.1" viewBox="0 0 1217 792" width="1217px" zoomAndPan="magnify"><title>Activity Diagram - Withdraw Cash</title><defs/><g><g class="title" data-source-line="2"><text fill="#000000" font-family="Verdana" font-size="22" font-weight="bold" lengthAdjust="spacing" textLength="419.0742" x="397.8428" y="37.1182">Activity Diagram - Withdraw Cash</text></g><ellipse cx="869.9868" cy="62.7373" fill="#FFFFFF" rx="10" ry="10" style="stroke:#000000;stroke-width:1;"/><rect fill="#FFFFFF" height="34.584" rx="12.5" ry="12.5" style="stroke:#000000;stroke-width:1;" width="240.4648" x="749.7544" y="92.7373"/><text fill="#000000" font-family="Verdana" font-size="12" lengthAdjust="spacing" textLength="220.4648" x="759.7544" y="114.8018">Customer enters withdrawal amount</text><polygon fill="#FFFFFF" points="797.9148,147.3213,942.0588,147.3213,954.0588,159.3213,942.0588,171.3213,797.9148,171.3213,785.9148,159.3213,797.9148,147.3213" style="stroke:#000000;stroke-width:1;"/><text fill="#000000" font-family="Verdana" font-size="11" lengthAdjust="spacing" textLength="144.144" x="797.9148" y="163.696">Amount within daily limit?</text><text fill="#000000" font-family="Verdana" font-size="11" lengthAdjust="spacing" textLength="18.7935" x="767.1213" y="157.0117">yes</text><text fill="#000000" font-family="Verdana" font-size="11" lengthAdjust="spacing" textLength="13.6372" x="954.0588" y="157.0117">no</text><polygon fill="#FFFFFF" points="564.5632,181.3213,733.8762,181.3213,745.8762,193.3213,733.8762,205.3213,564.5632,205.3213,552.5632,193.3213,564.5632,181.3213" style="stroke:#000000;stroke-width:1;"/><text fill="#000000" font-family="Verdana" font-size="11" lengthAdjust="spacing" textLength="169.313" x="564.5632" y="197.696">Sufficient balance on Account?</text><text fill="#000000" font-family="Verdana" font-size="11" lengthAdjust="spacing" textLength="18.7935" x="533.7698" y="191.0117">yes</text><text fill="#000000" font-family="Verdana" font-size="11" lengthAdjust="spacing" textLength="13.6372" x="745.8762" y="191.0117">no</text><polygon fill="#FFFFFF" points="353.7778,215.3213,547.2983,215.3213,559.2983,227.3213,547.2983,239.3213,353.7778,239.3213,341.7778,227.3213,353.7778,215.3213" style="stroke:#000000;stroke-width:1;"/><text fill="#000000" font-family="Verdana" font-size="11" lengthAdjust="spacing" textLength="193.5205" x="353.7778" y="231.696">CashDispenser has sufficient cash?</text><text fill="#000000" font-family="Verdana" font-size="11" lengthAdjust="spacing" textLength="18.7935" x="322.9844" y="225.0117">yes</text><text fill="#000000" font-family="Verdana" font-size="11" lengthAdjust="spacing" textLength="13.6372" x="559.2983" y="225.0117">no</text><rect fill="#FFFFFF" height="49.168" rx="12.5" ry="12.5" style="stroke:#000000;stroke-width:1;" width="281.4629" x="122.2314" y="249.3213"/><text fill="#000000" font-family="Verdana" font-size="12" lengthAdjust="spacing" textLength="207.5742" x="132.2314" y="271.3857">Bank Backend creates Transaction</text><text fill="#000000" font-family="Verdana" font-size="12" lengthAdjust="spacing" textLength="261.4629" x="132.2314" y="285.9697">(type = WITHDRAWAL, status = PENDING)</text><rect fill="#FFFFFF" height="34.584" rx="12.5" ry="12.5" style="stroke:#000000;stroke-width:1;" width="198.0723" x="163.9268" y="333.4893"/><text fill="#000000" font-family="Verdana" font-size="12" lengthAdjust="spacing" textLength="178.0723" x="173.9268" y="355.5537">Bank Backend debits Account</text><rect fill="#FFFFFF" height="34.584" rx="12.5" ry="12.5" style="stroke:#000000;stroke-width:1;" width="117.9922" x="203.9668" y="388.0732"/><text fill="#000000" font-family="Verdana" font-size="12" lengthAdjust="spacing" textLength="97.9922" x="213.9668" y="410.1377">ATM ejects Card</text><rect fill="#FFFFFF" height="34.584" rx="12.5" ry="12.5" style="stroke:#000000;stroke-width:1;" width="140.3457" x="192.79" y="442.6572"/><text fill="#000000" font-family="Verdana" font-size="12" lengthAdjust="spacing" textLength="120.3457" x="202.79" y="464.7217">ATM dispenses cash</text><polygon fill="#FFFFFF" points="182.281,497.2412,343.6448,497.2412,355.6448,509.2412,343.6448,521.2412,182.281,521.2412,170.281,509.2412,182.281,497.2412" style="stroke:#000000;stroke-width:1;"/><text fill="#000000" font-family="Verdana" font-size="11" lengthAdjust="spacing" textLength="161.3638" x="182.281" y="513.616">Cash dispensed successfully?</text><text fill="#000000" font-family="Verdana" font-size="11" lengthAdjust="spacing" textLength="18.7935" x="151.4875" y="506.9316">yes</text><text fill="#000000" font-family="Verdana" font-size="11" lengthAdjust="spacing" textLength="13.6372" x="355.6448" y="506.9316">no</text><rect fill="#FFFFFF" height="34.584" rx="12.5" ry="12.5" style="stroke:#000000;stroke-width:1;" width="246.8398" x="6" y="531.2412"/><text fill="#000000" font-family="Verdana" font-size="12" lengthAdjust="spacing" textLength="226.8398" x="16" y="553.3057">ATM updates CashCassette quantities</text><rect fill="#FFFFFF" height="49.168" rx="12.5" ry="12.5" style="stroke:#000000;stroke-width:1;" width="231.5996" x="13.6201" y="585.8252"/><text fill="#000000" font-family="Verdana" font-size="12" lengthAdjust="spacing" textLength="211.5996" x="23.6201" y="607.8896">Bank Backend updates Transaction</text><text fill="#000000" font-family="Verdana" font-size="12" lengthAdjust="spacing" textLength="139.5879" x="23.6201" y="622.4736">(status = COMPLETED)</text><rect fill="#FFFFFF" height="34.584" rx="12.5" ry="12.5" style="stroke:#000000;stroke-width:1;" width="238.8008" x="10.0195" y="654.9932"/><text fill="#000000" font-family="Verdana" font-size="12" lengthAdjust="spacing" textLength="218.8008" x="20.0195" y="677.0576">Bank Backend writes AuditLog entry</text><ellipse cx="129.4199" cy="720.5771" fill="none" rx="11" ry="11" style="stroke:#000000;stroke-width:1;"/><ellipse cx="129.4199" cy="720.5771" fill="#FFFFFF" rx="6" ry="6" style="stroke:#000000;stroke-width:1;"/><rect fill="#FFFFFF" height="34.584" rx="12.5" ry="12.5" style="stroke:#000000;stroke-width:1;" width="247.332" x="272.8398" y="531.2412"/><text fill="#000000" font-family="Verdana" font-size="12" lengthAdjust="spacing" textLength="227.332" x="282.8398" y="553.3057">Bank Backend reverses Account debit</text><rect fill="#FFFFFF" height="49.168" rx="12.5" ry="12.5" style="stroke:#000000;stroke-width:1;" width="231.5996" x="280.7061" y="585.8252"/><text fill="#000000" font-family="Verdana" font-size="12" lengthAdjust="spacing" textLength="211.5996" x="290.7061" y="607.8896">Bank Backend updates Transaction</text><text fill="#000000" font-family="Verdana" font-size="12" lengthAdjust="spacing" textLength="109.582" x="290.7061" y="622.4736">(status = FAILED)</text><rect fill="#FFFFFF" height="34.584" rx="12.5" ry="12.5" style="stroke:#000000;stroke-width:1;" width="238.8008" x="277.1055" y="654.9932"/><text fill="#000000" font-family="Verdana" font-size="12" lengthAdjust="spacing" textLength="218.8008" x="287.1055" y="677.0576">Bank Backend writes AuditLog entry</text><rect fill="#FFFFFF" height="34.584" rx="12.5" ry="12.5" style="stroke:#000000;stroke-width:1;" width="178.7422" x="307.1348" y="709.5771"/><text fill="#000000" font-family="Verdana" font-size="12" lengthAdjust="spacing" textLength="158.7422" x="317.1348" y="731.6416">Display "Dispensing error"</text><ellipse cx="396.5059" cy="775.1611" fill="none" rx="11" ry="11" style="stroke:#000000;stroke-width:1;"/><ellipse cx="396.5059" cy="775.1611" fill="#FFFFFF" rx="6" ry="6" style="stroke:#000000;stroke-width:1;"/><rect fill="#FFFFFF" height="34.584" rx="12.5" ry="12.5" style="stroke:#000000;stroke-width:1;" width="175.8828" x="550.1719" y="249.3213"/><text fill="#000000" font-family="Verdana" font-size="12" lengthAdjust="spacing" textLength="155.8828" x="560.1719" y="271.3857">Display "ATM out of cash"</text><ellipse cx="638.1133" cy="329.9053" fill="none" rx="11" ry="11" style="stroke:#000000;stroke-width:1;"/><ellipse cx="638.1133" cy="329.9053" fill="#FFFFFF" rx="6" ry="6" style="stroke:#000000;stroke-width:1;"/><rect fill="#FFFFFF" height="34.584" rx="12.5" ry="12.5" style="stroke:#000000;stroke-width:1;" width="183.6934" x="756.0547" y="215.3213"/><text fill="#000000" font-family="Verdana" font-size="12" lengthAdjust="spacing" textLength="163.6934" x="766.0547" y="237.3857">Display "Insufficient funds"</text><ellipse cx="847.9014" cy="295.9053" fill="none" rx="11" ry="11" style="stroke:#000000;stroke-width:1;"/><ellipse cx="847.9014" cy="295.9053" fill="#FFFFFF" rx="6" ry="6" style="stroke:#000000;stroke-width:1;"/><rect fill="#FFFFFF" height="34.584" rx="12.5" ry="12.5" style="stroke:#000000;stroke-width:1;" width="242.0117" x="969.748" y="181.3213"/><text fill="#000000" font-family="Verdana" font-size="12" lengthAdjust="spacing" textLength="222.0117" x="979.748" y="203.3857">Display "Amount exceeds daily limit"</text><ellipse cx="1090.7539" cy="261.9053" fill="none" rx="11" ry="11" style="stroke:#000000;stroke-width:1;"/><ellipse cx="1090.7539" cy="261.9053" fill="#FFFFFF" rx="6" ry="6" style="stroke:#000000;stroke-width:1;"/><line style="stroke:#000000;stroke-width:1;" x1="869.9868" x2="869.9868" y1="72.7373" y2="92.7373"/><polygon fill="#000000" points="865.9868,82.7373,869.9868,92.7373,873.9868,82.7373,869.9868,86.7373" style="stroke:#000000;stroke-width:1;"/><line style="stroke:#000000;stroke-width:1;" x1="262.9629" x2="262.9629" y1="298.4893" y2="333.4893"/><polygon fill="#000000" points="258.9629,323.4893,262.9629,333.4893,266.9629,323.4893,262.9629,327.4893" style="stroke:#000000;stroke-width:1;"/><line style="stroke:#000000;stroke-width:1;" x1="262.9629" x2="262.9629" y1="368.0732" y2="388.0732"/><polygon fill="#000000" points="258.9629,378.0732,262.9629,388.0732,266.9629,378.0732,262.9629,382.0732" style="stroke:#000000;stroke-width:1;"/><line style="stroke:#000000;stroke-width:1;" x1="262.9629" x2="262.9629" y1="422.6572" y2="442.6572"/><polygon fill="#000000" points="258.9629,432.6572,262.9629,442.6572,266.9629,432.6572,262.9629,436.6572" style="stroke:#000000;stroke-width:1;"/><line style="stroke:#000000;stroke-width:1;" x1="129.4199" x2="129.4199" y1="565.8252" y2="585.8252"/><polygon fill="#000000" points="125.4199,575.8252,129.4199,585.8252,133.4199,575.8252,129.4199,579.8252" style="stroke:#000000;stroke-width:1;"/><line style="stroke:#000000;stroke-width:1;" x1="129.4199" x2="129.4199" y1="634.9932" y2="654.9932"/><polygon fill="#000000" points="125.4199,644.9932,129.4199,654.9932,133.4199,644.9932,129.4199,648.9932" style="stroke:#000000;stroke-width:1;"/><line style="stroke:#000000;stroke-width:1;" x1="129.4199" x2="129.4199" y1="689.5771" y2="709.5771"/><polygon fill="#000000" points="125.4199,699.5771,129.4199,709.5771,133.4199,699.5771,129.4199,703.5771" style="stroke:#000000;stroke-width:1;"/><line style="stroke:#000000;stroke-width:1;" x1="396.5059" x2="396.5059" y1="565.8252" y2="585.8252"/><polygon fill="#000000" points="392.5059,575.8252,396.5059,585.8252,400.5059,575.8252,396.5059,579.8252" style="stroke:#000000;stroke-width:1;"/><line style="stroke:#000000;stroke-width:1;" x1="396.5059" x2="396.5059" y1="634.9932" y2="654.9932"/><polygon fill="#000000" points="392.5059,644.9932,396.5059,654.9932,400.5059,644.9932,396.5059,648.9932" style="stroke:#000000;stroke-width:1;"/><line style="stroke:#000000;stroke-width:1;" x1="396.5059" x2="396.5059" y1="689.5771" y2="709.5771"/><polygon fill="#000000" points="392.5059,699.5771,396.5059,709.5771,400.5059,699.5771,396.5059,703.5771" style="stroke:#000000;stroke-width:1;"/><line style="stroke:#000000;stroke-width:1;" x1="396.5059" x2="396.5059" y1="744.1611" y2="764.1611"/><polygon fill="#000000" points="392.5059,754.1611,396.5059,764.1611,400.5059,754.1611,396.5059,758.1611" style="stroke:#000000;stroke-width:1;"/><line style="stroke:#000000;stroke-width:1;" x1="170.281" x2="129.4199" y1="509.2412" y2="509.2412"/><line style="stroke:#000000;stroke-width:1;" x1="129.4199" x2="129.4199" y1="509.2412" y2="531.2412"/><polygon fill="#000000" points="125.4199,521.2412,129.4199,531.2412,133.4199,521.2412,129.4199,525.2412" style="stroke:#000000;stroke-width:1;"/><line style="stroke:#000000;stroke-width:1;" x1="355.6448" x2="396.5059" y1="509.2412" y2="509.2412"/><line style="stroke:#000000;stroke-width:1;" x1="396.5059" x2="396.5059" y1="509.2412" y2="531.2412"/><polygon fill="#000000" points="392.5059,521.2412,396.5059,531.2412,400.5059,521.2412,396.5059,525.2412" style="stroke:#000000;stroke-width:1;"/><line style="stroke:#000000;stroke-width:1;" x1="262.9629" x2="262.9629" y1="477.2412" y2="497.2412"/><polygon fill="#000000" points="258.9629,487.2412,262.9629,497.2412,266.9629,487.2412,262.9629,491.2412" style="stroke:#000000;stroke-width:1;"/><line style="stroke:#000000;stroke-width:1;" x1="638.1133" x2="638.1133" y1="283.9053" y2="318.9053"/><polygon fill="#000000" points="634.1133,308.9053,638.1133,318.9053,642.1133,308.9053,638.1133,312.9053" style="stroke:#000000;stroke-width:1;"/><line style="stroke:#000000;stroke-width:1;" x1="341.7778" x2="262.9629" y1="227.3213" y2="227.3213"/><line style="stroke:#000000;stroke-width:1;" x1="262.9629" x2="262.9629" y1="227.3213" y2="249.3213"/><polygon fill="#000000" points="258.9629,239.3213,262.9629,249.3213,266.9629,239.3213,262.9629,243.3213" style="stroke:#000000;stroke-width:1;"/><line style="stroke:#000000;stroke-width:1;" x1="559.2983" x2="638.1133" y1="227.3213" y2="227.3213"/><line style="stroke:#000000;stroke-width:1;" x1="638.1133" x2="638.1133" y1="227.3213" y2="249.3213"/><polygon fill="#000000" points="634.1133,239.3213,638.1133,249.3213,642.1133,239.3213,638.1133,243.3213" style="stroke:#000000;stroke-width:1;"/><line style="stroke:#000000;stroke-width:1;" x1="847.9014" x2="847.9014" y1="249.9053" y2="284.9053"/><polygon fill="#000000" points="843.9014,274.9053,847.9014,284.9053,851.9014,274.9053,847.9014,278.9053" style="stroke:#000000;stroke-width:1;"/><line style="stroke:#000000;stroke-width:1;" x1="552.5632" x2="450.5381" y1="193.3213" y2="193.3213"/><line style="stroke:#000000;stroke-width:1;" x1="450.5381" x2="450.5381" y1="193.3213" y2="215.3213"/><polygon fill="#000000" points="446.5381,205.3213,450.5381,215.3213,454.5381,205.3213,450.5381,209.3213" style="stroke:#000000;stroke-width:1;"/><line style="stroke:#000000;stroke-width:1;" x1="745.8762" x2="847.9014" y1="193.3213" y2="193.3213"/><line style="stroke:#000000;stroke-width:1;" x1="847.9014" x2="847.9014" y1="193.3213" y2="215.3213"/><polygon fill="#000000" points="843.9014,205.3213,847.9014,215.3213,851.9014,205.3213,847.9014,209.3213" style="stroke:#000000;stroke-width:1;"/><line style="stroke:#000000;stroke-width:1;" x1="1090.7539" x2="1090.7539" y1="215.9053" y2="250.9053"/><polygon fill="#000000" points="1086.7539,240.9053,1090.7539,250.9053,1094.7539,240.9053,1090.7539,244.9053" style="stroke:#000000;stroke-width:1;"/><line style="stroke:#000000;stroke-width:1;" x1="785.9148" x2="649.2197" y1="159.3213" y2="159.3213"/><line style="stroke:#000000;stroke-width:1;" x1="649.2197" x2="649.2197" y1="159.3213" y2="181.3213"/><polygon fill="#000000" points="645.2197,171.3213,649.2197,181.3213,653.2197,171.3213,649.2197,175.3213" style="stroke:#000000;stroke-width:1;"/><line style="stroke:#000000;stroke-width:1;" x1="954.0588" x2="1090.7539" y1="159.3213" y2="159.3213"/><line style="stroke:#000000;stroke-width:1;" x1="1090.7539" x2="1090.7539" y1="159.3213" y2="181.3213"/><polygon fill="#000000" points="1086.7539,171.3213,1090.7539,181.3213,1094.7539,171.3213,1090.7539,175.3213" style="stroke:#000000;stroke-width:1;"/><line style="stroke:#000000;stroke-width:1;" x1="869.9868" x2="869.9868" y1="127.3213" y2="147.3213"/><polygon fill="#000000" points="865.9868,137.3213,869.9868,147.3213,873.9868,137.3213,869.9868,141.3213" style="stroke:#000000;stroke-width:1;"/><!--SRC=[dPDDRjim48NtEiKqAmjeBs2ZA1JBRGquQT0QyAQR2JcAfw4ebKF6rUrB_Tkjiyb22shcVNoF7BxpHoe9QeDi4y_U46JAymlx1dB69uSbV803-wDsU88roZ59nAFpIR9S1_5LIGx8Ud82fw4D3M1P1UjNIS85BB9kqPNPWaOs3HWksNzA8UvlOT6Gf0b0s_mZ50KhZaXuH8DM4LGscb8jurz1BsbTvImrMObcZYWWCqJ5ulyoWEKjscUuHVLCLeDoX9u4zWwjO3o1olwq2z_K11_XiDr_pRzdXspt7c9s7oJ-VDZSvzlxB-dgAa_J8tiPRKyzsVuEw1UfM5gZqnV_zP10EijZQSmtbNKCfnI95C6OvbgoWHTgtKLgrV4JyfxWTq0Rhvb9LdFtXVDHTdaIK-prjxk7tMQ_oTFN02V7hJuBclskUcg7mpLpSnoPUbYG4OA5hT9NI8vUubZHT8pzgRxH-ETiktkxwsKxNmORk1a6ZMtiSQvoDzUZMSr5SYtaJ6elgGeUggAxyGaqOKR89M86REtPd1V1QXaO0w7NdwlFDk_V9FrHH5hE7sN7w0Yz_Yy0]--></g></svg>